<mxfile host="65bd71144e">
    <diagram name="ページ1" id="QNs_Vb9Bl_1LyKi5m_Pa">
        <mxGraphModel dx="954" dy="634" grid="1" gridSize="10" guides="1" tooltips="1" connect="1" arrows="1" fold="1" page="1" pageScale="1" pageWidth="1169" pageHeight="827" math="0" shadow="0">
            <root>
                <mxCell id="0"/>
                <mxCell id="1" parent="0"/>
                <mxCell id="2" value="" style="rounded=0;whiteSpace=wrap;html=1;" parent="1" vertex="1">
                    <mxGeometry x="8.5" y="10" width="1151.5" height="790" as="geometry"/>
                </mxCell>
                <mxCell id="ZURjfdf_9gOF2QyeWpGf-49" style="edgeStyle=orthogonalEdgeStyle;rounded=0;orthogonalLoop=1;jettySize=auto;html=1;startArrow=classic;startFill=1;exitX=0.054;exitY=0.5;exitDx=0;exitDy=0;exitPerimeter=0;" parent="1" source="7" edge="1" target="5">
                    <mxGeometry relative="1" as="geometry">
                        <mxPoint x="550" y="410" as="targetPoint"/>
                        <mxPoint x="735.6700000000001" y="240.89999999999998" as="sourcePoint"/>
                        <Array as="points">
                            <mxPoint x="510" y="250"/>
                        </Array>
                    </mxGeometry>
                </mxCell>
                <mxCell id="ZURjfdf_9gOF2QyeWpGf-51" value="&lt;ul&gt;&lt;li&gt;獣害報告を管理&lt;/li&gt;&lt;li&gt;ユーザ管理&lt;/li&gt;&lt;/ul&gt;" style="edgeLabel;html=1;align=left;verticalAlign=middle;resizable=0;points=[];labelBackgroundColor=none;" parent="ZURjfdf_9gOF2QyeWpGf-49" vertex="1" connectable="0">
                    <mxGeometry x="-0.0763" y="1" relative="1" as="geometry">
                        <mxPoint x="-41" y="-22" as="offset"/>
                    </mxGeometry>
                </mxCell>
                <mxCell id="ZURjfdf_9gOF2QyeWpGf-7" style="edgeStyle=orthogonalEdgeStyle;rounded=0;orthogonalLoop=1;jettySize=auto;html=1;" parent="1" edge="1">
                    <mxGeometry relative="1" as="geometry">
                        <mxPoint x="159.94" y="450" as="targetPoint"/>
                        <mxPoint x="120.0200000000001" y="450.04761904761904" as="sourcePoint"/>
                    </mxGeometry>
                </mxCell>
                <mxCell id="ZURjfdf_9gOF2QyeWpGf-8" value="AWS Cloud" style="points=[[0,0],[0.25,0],[0.5,0],[0.75,0],[1,0],[1,0.25],[1,0.5],[1,0.75],[1,1],[0.75,1],[0.5,1],[0.25,1],[0,1],[0,0.75],[0,0.5],[0,0.25]];outlineConnect=0;gradientColor=none;html=1;whiteSpace=wrap;fontSize=12;fontStyle=0;container=0;pointerEvents=0;collapsible=0;recursiveResize=0;shape=mxgraph.aws4.group;grIcon=mxgraph.aws4.group_aws_cloud_alt;strokeColor=#232F3E;fillColor=none;verticalAlign=top;align=left;spacingLeft=30;fontColor=#232F3E;dashed=0;" parent="1" vertex="1">
                    <mxGeometry x="380" y="190" width="770" height="550" as="geometry"/>
                </mxCell>
                <mxCell id="ZURjfdf_9gOF2QyeWpGf-20" value="&lt;ul&gt;&lt;li&gt;LINEアカウントから&lt;br&gt;投稿された画像を保存&lt;/li&gt;&lt;/ul&gt;" style="edgeStyle=orthogonalEdgeStyle;rounded=0;orthogonalLoop=1;jettySize=auto;html=1;labelBackgroundColor=none;align=left;" parent="1" source="5" target="ZURjfdf_9gOF2QyeWpGf-10" edge="1">
                    <mxGeometry x="-0.79" y="20" relative="1" as="geometry">
                        <mxPoint x="590" y="450" as="sourcePoint"/>
                        <mxPoint x="785.67" y="450" as="targetPoint"/>
                        <Array as="points"/>
                        <mxPoint as="offset"/>
                    </mxGeometry>
                </mxCell>
                <mxCell id="ZURjfdf_9gOF2QyeWpGf-27" style="edgeStyle=orthogonalEdgeStyle;rounded=0;orthogonalLoop=1;jettySize=auto;html=1;exitX=1;exitY=0.5;exitDx=0;exitDy=0;startArrow=classic;startFill=1;endArrow=classic;endFill=1;" parent="1" source="ZURjfdf_9gOF2QyeWpGf-25" target="5" edge="1">
                    <mxGeometry relative="1" as="geometry">
                        <mxPoint x="430" y="450" as="targetPoint"/>
                    </mxGeometry>
                </mxCell>
                <mxCell id="ZURjfdf_9gOF2QyeWpGf-31" value="&lt;ul&gt;&lt;li&gt;webhook受信&lt;br&gt;&lt;/li&gt;&lt;li&gt;フォロワーに通知&lt;/li&gt;&lt;/ul&gt;" style="edgeLabel;html=1;align=left;verticalAlign=middle;resizable=0;points=[];labelBackgroundColor=none;" parent="ZURjfdf_9gOF2QyeWpGf-27" vertex="1" connectable="0">
                    <mxGeometry x="0.0506" y="-1" relative="1" as="geometry">
                        <mxPoint x="-82" y="-21" as="offset"/>
                    </mxGeometry>
                </mxCell>
                <mxCell id="ZURjfdf_9gOF2QyeWpGf-28" value="" style="shape=image;verticalLabelPosition=bottom;verticalAlign=top;imageAspect=0;aspect=fixed;image=data:image/png,iVBORw0KGgoAAAANSUhEUgAAAZcAAACKCAYAAABmWQf8AAAACXBIWXMAAAsSAAALEgHS3X78AAAXs0lEQVR4nO2dTVbcSNaGo/r4aNp8Kyi8goJhjgwrMAw0NqzAsALMCoAVgMc5IGsFTo80JHsFlb2Czp7mpPsE/cqfEEop4saPIpTvc06dqrIhUwqF7htx/+I31UNRlRdKqcO+n2nwtJ3N14Y/G4yiKg+UUvq6Dwy+Y4Pr3gz9YIpjUVTlleF9au4N7/NEKXXifnXeWG9n86eErocQYsBOcSmq8ptS6sZiELXhOh5bYIqqfFFKHVn8ymo7mx8PfKZkLE63s/nK4nesKKryWSl1ZvE7azyfnQJTVKX+vOdQ1+yAFsbrBK+LELKDv/UMzCfLQat3DKNRVOWRpbBojvB7fUjG4hG7qFDYCIvCrmvoPr8EvF4XRp1XhBB7+sQlR6TGPIQIaEN+F+BzQxJSDF1I9boIITuYmrikxgViNYQQsldQXMJzZ+B2I4SQSUFxCU+M+AshhCQFxSUOOcZfCCFEDMUlHhdI9SWEkMlDcYmLdo+ZFmISQki2UFzicpBokSIhhHiF4hIfXbTJ+AshZNJQXMbhivEXK5YZXSshe4/mA0dhNHT8ZZVCs09HdK+yYD3U0BONfcUIyQyKy3i81r/oBpeZ34cWyNzvgRDiGbrFxuUEHZcJIWRSUFzG5wZnqBBCyGSguKTBM9vDEEKmBMUlDVj/QgiZFBSXdGD8hRAyGSguacH4CyFkElBc0oPt+Qkh2cM6l/Q4RP3LeS7XG9idt97O5k8BP58QEgCKS5qcFVV5tZ3N7zO4Vi2GNyG/oKjKP7azOav0CckIusXCsXH8ZB6P/P9cpHIhhBAzKC7hePLQc4v1L/+DY0BIZlBcwvFvpdSl4w6mjr8QQkhWUFwCsp3NVx46+r7GX5K+UUIIaUFxCQwynVyznW4YfyGE5ATFJQ7XjvGXA9a/EEJyguISge1svvEQf9E7Fx6PTAjJAopLJBB/uXX8touiKpmWSwhJHopLRFAUuXD8Rta/EEKSh+ISn0ucCy/lgOnJhJDUobhEBvEX175h+7ZzWSZwDYQQC9hbbAR0/KWoyuuJBOg3HjoR9LH2UCtECIkMxWUkdPylqMpPukgy81tZbWfz0wSugxCSEHSLjYtr/IUQQpKE4jIijfoXQgiZFBSXkdnO5ksP9S+EEJIUFJcE2M7m35gRRQiZEhSXdDj3cMAYIYQkAcUlETzVvxBCSBJQXBKC8RdCyFTwXefyqajKbwHHZgkDPFl0/KWoys8ZVeEfBn7ma5yJQwjJCN/icoJ/QqEPzbrcA2Oj3WMvmZwdr49ivgn5BUVV/rGdzVmlT0hG5OgW+5LANQRlO5uvWf/yBh4zQEhmMOaSKNvZXLfmv9/3cQA8gZOQzKC4JAxcQSGbQhJCSBAoLunD+hdCSHZQXBKH8RdCSI5QXDIA8Rem4xJCsoHikg+MvxBCsoHikgmN9vyMvxBCkofikhH6eGQe+UsIyQGKS2agOwHjL4SQpOkTl1SP390Zd0DfMVu30cagX5lkLEL2QJPEXzYG9/HT4ZpCwrNuCMmMvt5itfvlMKFbWhl0DT5FryuTqu6NYRdi27H4HrLBpo6/FFWp7/PRonr9AWnNfZ+rm2bq//zk5UL9sKYrkBBCCCGEEEIIIYQQQgghhBBCCCGEEEIIIYQQQgghhBBCCCGEEEIIIYQQQgghhBBCCCGEEEIIIYQQQgghhBBCCCGEEEIIIYQQQkLxG0d2GhRVqY9g/qqUOsLxzZf6OOR9HxdCyDg4i0tRlfoM9zOcL78McXZ86ztW29l84fs7xqKoyqOhc/D7xrSoSj0uXzA+TVZKqVMKDCFkDJzEBavllw7jqI3/T4jNSvjZJ0qpz0qpE6zGmzxtZ/PLkcbMG0VVPiqlLgw+Twvqcf0/GPcLiMphz+9NYpxSBPNzaPy1sP+5nc2fJnLPV3gn+1grpR6k7z0ZfAZND8UQP7ez+bexhtRVXEyMo37B9Mt1O7SKxsDdQVB6V/NYlXvfJcUCO5YXi6871zu2HkHfxfV2Nr/PanASp6hKPecfLa7ydsyX3AdFVer38srwo/R7frydzddp31VeCN59NeYC84P0Fxur5yEOMCn1v3feJFxfPwZWgk1u9M5Iev0JYDNBFFYqC4yPze/eFVVptIPEavwktYESog3bIpBb8M7y5/UOJ2txsRAWhfl5MYF7To0Lgd246LO7IRGLC4y7z5s8sRCW15/XxjDn3YuQFf4x2RbXPBZV2Rt/sXDR5YQW1hAraNsX3GZeEzIJROJisWuxwfaFVRPYvVijBaKoykvs8kzH7Ahjdd31l0gKmJqwKIzPzVgrtwb7tgAaDXhA6hX+CnFfJrWMwN+EX2njb64ZesEkL+AJ/N85Ip7wcHHdWv5a307HZheUG153DTBeJF1+wG2pFxXPSql/FVX5nLGdyBZrccEqV+KX/973l3BdSFKM73J84V2zaRCkNxVkLWQPLt+XMb5XrVMW4qyBgHQ9nzO4hrXQPCK2SAJj5RaDEbcNZmo2humYDx31GkMc9Ll8Js7lQPbIGjucUIHtHPhHAtc4WtaUSR1VIH73ZcRN4qqwTUNx4NpldlFU5Rr25oluszDYxlxuhG4Go1WznkRFVdoGqzVXRVX+KQnuNwQz9aDrl6IqP1n+zhqZSvp3R815H5EU6i3+GfsLG9mXY+20LnzF8Yqq3KD0oO9ZXlm+w3XZw01RlQukiwdfBEDsb7CIXqBUYJIp28biAneYTTpijZ4YNnUWD8KYziMyg2xXIXeZBLMPBQLYXDnq+NR6KgV9FrwzSDC8UqMr+T1vq3iwNjBINxNy4R3AJhx3/SWe51eHz653M08RRKaZiHOG9/I2ZC2aHp8xdmdG4oLsMInBV7YuGW38iqqU7JDqazwX/N6+sG8pse+MsGUxoC+8reIb93G/nc37XMFTiw313c+VJ9dfUJHBAr19nQeIG39GP8AQwnY0RsaiaUD/WfjwNoKsJiX8Hc0ZWlQQotovFObGVOaHdgXvfZGi465lF1pk/kLw32e8qq91jt7ZvkzJfg2KC4rrpKugB4kSw3UjVdo7ZoNYM5lGoC1+tv5/qC9WbtjG4KaIpGrdlFpkfO06h+xSvYt5nkLKe6+4YGUkHVjbWEsb6e5F84zAGTEAgdIpxmJYvDh9QhvhA8RznewJFrymbukz7GKyFpidMReotW2LlyaDjSr7QObYQpCarBoTgi3nDdHN7XRgMdG4zIlgLq7YOHEveIJbLLQhPnPMPPxi+fOHmPfZehU6xUXQ9bXNylP2w7Vhh+Qu9ErjBwXGHBjj5AwygvC29BbtkuzonJd6zup3vJHeGwrX90K6SPbBV2SMRRWqd24xD8KifBU0wti5uMdqgWHLjkzpqboeYqpxpH1lp3HXbt3tbK6zRD/CXvheIDml8GMOS2yQL7fuGUIFdYeCkCL8izfighiLq7Dc++xUbNnmpIshgdmnXU1WbiKHjhALusT2D/3MdaHwdjb/iJIEX3bItfGprUtMBXLr1jU9UYTm1S3WeIldsyJedxq44JtGfvUabThWGDRbgz7U5mSIWmDOOx5YPXGiqPlIbNDmIlrQHrVRQ/GboblwJ3zm+9pHjQC4gBYIxH91sG1OR7fjPfDei9ED7VY4C2l27y7qmIuvNhHn+Jznxp+9G1jczAo3M/jg4Fe9dtxVHSED400bCRg328JLL1ieoaIn+ekY12mLRaHipv08auBKkBiEdc+cYuxtN8uO1O1QfBIYXFEwHXOrTla5Ecwp112LNCkqZvbmId5XXTul58F3HwvRD9hl+BAW3SNnBYM5RL2qPYNxMRGYJ/TWctldHUD4Pjp8hk+i95wKDVaKpoVgnc8DnyFdSPTF6G4dEkSmTrTec3C/24rLv12+EyvyWmTuDD0VTlX6jbNlbBmz0ewJWtLcQeDEu5kPnoRl0cgOs3UvfbXwjV7jel2umacChsXplEYIyw/hFa76VlxY/JxizknmgaTDsI1LZawOxjngxV0DQ3mOupO7HlviWqenHLpB/On4vT44aOxmFqZepiYf4GtzqWdZ1VvHHb1zhjD+eeEpjFMhl6JQ8XXCFSaNsyiTLMXaTSL58KIq/7K9NhtXZlGVP4T++dz4XXC9XoPbMJTHaLdy0/Fcr112Dw5taUyPJ4nJGbxMVi6zD1jNSYsVN2i2Vj8ESXsNK18qrvfcYXXbuRrBNjCGAb8WHhSWi5iKrtNDQ8knn1mKbQwTFNqwQ0A3kl1jkKMTtMcFjSrrhKYNVumuBr5LsEzo+96l40bAldpldgOXYe8Y1QH9SxhWm4fedcaCRKCssyJQvX8p8Mt3Hg8MH3CshnE6a+0jBJkB5v+N/4ujsG8iHBYnub4UzpJJEdvd2SZkDAKffekheP8KFiJSe5JDpuMhOqD0isxrnUtjcG24bAqL0CW2lh73ixuyuebXrLAdkzRmA8DmWSJW9z7hhpyuO8Zdz9UnkjmSwimYSSHs0ZWbSEuTUZ4yq8+qRaazueevIkq4FEyr4S87WglICoWcVNpSYLpqXIh//og8ptch3WENJLtyusXeI1kgxUqRdgaLbOkiMNeWRbXIvDQXwG8q9JGKOLRKuGxvgxC8krx8zi06DAUmlgEKTQ5B/ZixoaeQJ/jVCOMtJqdF7iOSHWAW7y7soHTX4lSsmQh1sfprR5SulvvnO2IBmy5hASJh8fXyDQhMFAMkQTCZcgjqx3Ld6efqxUduAHctHoBIW49lRkb30eEddemhOETsRc5rmvc7camLjVp/XAfvd2UHSFLujLeAeqsJNfyBfjjvVpENgWkK4zJCoDcmsV1OVnQ9FwMk/vSYwqKE8zuFWoXUEBUU5nBjiDlIW0iF3rVcolD5PmIS0WHnYWGIp3xsZFB83BV4h0GxddesTdo/a/8dcv+f6zQ4TNDORpQQGH3durbgWNcYZNBu32ZVkXoBqMRtd2nZ6iKqsFge8tREYiwmW7vlUPeRvEg7dpRQgXctr6Cp53XDrofezWx2HhaGHYzJS+991wLB6usDdIg6l+P2X0BMcnJJrC2MV+oxF+s6p0bvJ2Wwsr2N1aKkgSRRRdq+w/b59u36bI1H6EXYlVA8k965wFZJa+5U6PqsNpiX2q4/NQ6EDLFofRg8Q98AyVa3U7T06gY1J38ZfO6RYR8zE2Jmo2xaRsHKCCR+fLNtvOXXS4XdyK7FTO2WjSosMByS+R1rtd3Xb+vBQjCCHnPtsGsZs8fWILivZ4cdZ4z6rJ1oTw+OJ/C9k3l18+3cuZggPASnL5Bv251Zt4v+6VpNq41WUZV/hyEJ6ZpYtToaKEHzyqMU8/4herYroDf3gaOWVcugLzrGLBaSauhNCqttdLI4NhDH+jiGkOMrDXQn6xKDsLh2k3c6Ct4XsJ8+dzKvbj4ncRG2e+msbYFvW/Kg7oqqXEmLMWvgj+xcReDajLe+29n8N4uvtr3uVIP6kpXpux0jBOYBxmjj+lylQCyjdbQNcVoqFnGx3YhvQO8uSaDb6fTHkGBuPDsaYV9HwXujITK7+q2Z8Cs5QewWE6YV9p21IeUABTy5BkNtt6PJVek7uI865wKOrV2OJSxAcgKmcigMliyskk5WgRGWjmOSBYUokvzhKCySjijRgOh9FHaF/pWc4BJzkaxU+7IiXHx+LpN4VAQG9ChBIZW4jyQnkkYBKzeJiMcWxGTbojgeneCj3b1XEA++c4yx1NyOvHAaRL+b8OYcWyRIvUmpdhEX25Vqry8aW3iX4NZFyPOgA2M70ZK5Twf3Uaor0yOHzrMu7Ywmk4bcEBbpPT2ktPCAW/zFU3PbRapF3V3Ai3DaUUPYxZvNg0hchIH8wQmDQXcJhubqHrN1FcZstDmEuElfvEs0o9G+QzKHjGq3epiEWwy24cVBWNYjpJt3okUSdXaubrAa8VlCY9OoIdw1x98Vgkp3LhKXmKlau6TFufT2GRPb7rlJ7FwczsAJnZ0kxeVMn+hGIyXXCtxGjx7ev9GNL4q3nyGSvmKc7bOvsgOusvOOFmGdKdXW4iLM6jI2JsL2/03OMnSPWfcYG/sesUKVugmSc4lBKCXuPeWpfUdKu1ErMBdfHMavZjFWHzGI4wXOFvoRYAHXPvsqWxodXM77OrhIUpElFctW7Q1wGNi9g/HS7rFlLqsEHW8qqtKmUl/hOex0w+CF/4w6mnufYwFhmUz3V0ehVJ4K4WzdSKMbKiw0bzyt7rt6Ggan8Z5IzqMy5XIqwlIDe9LrBrYSF2HKqfQAnFs8cImv8wCTPqemlQtLA6d3aIddY4sX5rnxR5+7WuVIQCaVS2ZeUs/Ew/3cezIctt6A0RZOEOMvntPiYxz4VicbnGCnGGP3v6uT/OSx3bn4Tj/eiZ5oOMpYms54VVTl94xWDD8Fq+c7bE1/saOJng5MXrlkqSDY7eI6Uh4NsRcQI3C5n42PpoNdp/gZEHUcMa++BOpiEWRlj2uuO0d8GqFGbG+FRdmIC4yL7UvwptXLjmN6D1qrtt8buxXXDI07dEiOSuM+m4dM/YF7rf9siUPMXl8q7ccsqnJj+eLq3ctFPYGxY9mV7XRTVKUokI77efRQOBa8+6sJjZ5QrsbGebXdaNJqS19fMWdwXc0VfiiX0c4z2E1peFR+b7xfY3YQr3vhTcoVZss7cWlsedscCCaYNn7/iX1TDU6axtcBW5eFyW7rpEP8FgIB1/GlWrj6frfOpDvv+Zk3eNqt1ERxewzhSSgVdmGdsaOOcVvvyIBsL6xs8BK3wuq+vo4DiMlRpLqbJ9e0YwiLS+qzb1ZTjLFIeCMu6EgsLSBLlZu+morGjuygsbtQkbbQ7e94EBpyU3eaFvuToYA6xuQKblAfL+1tCkF8j/N7herlXbR3RSFW0mLj5ak3liv3A2NoSuhmszaM2WS1j1Gec3vnIomppM6hNio9KyTXzqbeQCfbVeDreUQa4TsCiIrysTr1AVJMfYzrpm/31wgYh2TtaMDGFpapxSI2WEClWnk/yrNu17lM9SS8r12V+42AX0q4tBAx4bAngPzs0A21i1UK2WGIRfl6zqcD2Y8x3iHXXeBYwjJ0XLqEsd1PS5x6m01Ll1i0xSXb6tEBDna4jpITU7x4oY8gfWdcGgFcX6xgSFKYU76EJRVfuus5J2M8kyWK7Xy7R8d6HmvMh6HFxt7SFpcpB6He7V5SK+ZrMEZWlU+hTUlYlKd5berKCf0ObRx7mKnIh5ltkBUZZD7AsMc07nXW4/E+pxmbsC87F9Wze0kOTNqQwvfupcCK3MdLqmMsxykFNWGMXYy+cYwgwn37cJvGOuHxCbuV0C6jGIviWlT0/XzLuUdYLNriYttAMTe6+jeluqUNFau479nGtxvS2XKNs/BT5FT4rFMKPq99nHMCsQ1pHGtRiZU5FdJurRv9sygqFrTFZeq+w66JMeY9951vEyIYvupzueE7JeKwTj2oCaNgI54b1Oak5Prwaax9u8Y2LVGJ+V753uXX96Jdefp+Uu3inTQ5isvKYTKFzsQyYY0X+3rIkHs436aJURwEq1obUbuHsCQfr8M1nhoIzBpjJR37EO/RpecYoa93YdlY2ccWlVc8jUstKHpB8X+4l1RjslnQrnNZYZBjZ1E1g3Kbxjb315+3H7RlX6hVTyHfzwB1CfU4rtCmY4lArMQAXyK7yyXjySrArkUNVf9947uCGyyrFxC1RNc9XZ19FMItPXU1UI0dlNdxxjjYduKur2eJuM0yoUwpSX3YEu//IpOKeumcHGXX9Vv7D9Aew/Sc6K4Jv0ab9/afNSeh1NA2r1O/FH8N/JheiXzvezEF7eM3jQDiT/z7l5iE2D4jy01a7HkrLWLcUXi49tEPamx2PPdrH649Ty1J1jj3xutxCU0MOxasMb//keJxCTUG95LFfQwhKAbewLMQfRHwTlxqmk0mE55Qdx0ZYBts+Y1b/bcOimoLRy2MzoLoAgTmxiLj7U1jTAmtHlnBjV1sIAJ12/WFzxcQY1cfGfF3Q4NQL8yiraRhlOtEl9prUC+ggiyWQtG6l3osl7ndRx+Nd9Jkx1l3DhjFbu0Ul1xoTajveDEnG3xrdNHd5XZZYrfGHHxCyGhkLy77ClYwzT5WG9+rb0IIEaGU+i/FOKG/ISUyewAAAABJRU5ErkJggg==" parent="1" vertex="1">
                    <mxGeometry x="20" y="433.56" width="97" height="32.89" as="geometry"/>
                </mxCell>
                <mxCell id="ZURjfdf_9gOF2QyeWpGf-48" value="&lt;div style=&quot;text-align: center;&quot;&gt;&lt;span style=&quot;background-color: initial;&quot;&gt;MySQL Database&lt;/span&gt;&lt;/div&gt;" style="text;whiteSpace=wrap;html=1;" parent="1" vertex="1">
                    <mxGeometry x="810" y="300" width="110" height="40" as="geometry"/>
                </mxCell>
                <mxCell id="3" value="&lt;font style=&quot;font-size: 24px;&quot;&gt;獣害報告システムの構成図&lt;/font&gt;" style="text;html=1;strokeColor=none;fillColor=none;align=center;verticalAlign=middle;whiteSpace=wrap;rounded=0;" parent="1" vertex="1">
                    <mxGeometry x="20" y="20" width="290" height="30" as="geometry"/>
                </mxCell>
                <mxCell id="y1teqzny498Lhfl6eGFe-9" value="" style="rounded=0;whiteSpace=wrap;html=1;" parent="1" vertex="1">
                    <mxGeometry x="735.67" y="40" width="160" height="80" as="geometry"/>
                </mxCell>
                <mxCell id="y1teqzny498Lhfl6eGFe-11" value="獣害報告データ" style="text;strokeColor=none;align=center;fillColor=none;html=1;verticalAlign=middle;whiteSpace=wrap;rounded=0;" parent="1" vertex="1">
                    <mxGeometry x="765.6700000000001" y="90" width="100" height="30" as="geometry"/>
                </mxCell>
                <mxCell id="y1teqzny498Lhfl6eGFe-12" value="" style="rounded=0;whiteSpace=wrap;html=1;" parent="1" vertex="1">
                    <mxGeometry x="980" y="40" width="160" height="80" as="geometry"/>
                </mxCell>
                <mxCell id="y1teqzny498Lhfl6eGFe-13" value="" style="shape=image;verticalLabelPosition=bottom;labelBackgroundColor=default;verticalAlign=top;aspect=fixed;imageAspect=0;image=data:image/png,iVBORw0KGgoAAAANSUhEUgAAAlgAAAGQBAMAAACAGwOrAAAAGFBMVEUgICC1tbWPj49paWna2tpEREQAAAD///+OjHtPAAAQcUlEQVR4XuzT0QlAUABAUVT+HxbwLGAFUTZ5EyjrU8qvV1Kpc0c4dYs9O73FgiVYsGDBggVLsGDBggULlmDBggULFizBggULFixYggULFixYsAQLFixYsGAJFixYsGDBEixYsGDBgiVYsGDBggVLsGDBggULlmDBggULFizBggULFixYggULFixYsAQLFixYsGAJFixYsGDBEixYsGDBgiVYsGDBggVLsGDBmkLsVlg5TWM6K3pYz811uqr+i7UtoYlDjCF8O0ib7sp/Yh3UnE1z2jAQht0G1GtCEjgDDVybpMCVfpkrnaT21Ri8ufpDnvz95tCOE9T6RdoVM7xnhp08Wq/1IE2+92aBoj8JuvdDb8AqepX49GDpy1+0n+ThwgurQtGrZKcGqxgr+me61hO4vN/PYr/ahN7ksSnAL3brG5a+UfTfnH20K5YbwDv7OOlttu6waqPYzjOsrxG15r3V7AoNWHF7YxENnGHloJg0LH1DKJlNc/UNWIv2xiL64AwrPC6sYk049LOlAOobGqDWSwESxsqIwiojArHdO84RLLNiApDYrMzUH6xSEQgcXBjWyhjv6C9krQwzAZQOHDo7kJYCfRMSyQ2aCKyMIKzKYMV/ErUBKzOaAWwucPDK8GHhZ5BPSxOApYjENkf6aLAKo4cl3omFQWILRhaAxSgmB0tjVi7vZRPGBuy5m4/A4GKpH1gTsk+Gx2cF2ib0C2vjBdaSXJI62NoT2EYyYNXHgVWQWz6jWksgM3PJmZWDbxKCFZFbkhXT1iIeLLwy8rCW5JqNta1NMayOmBrG8rBKcs+U59GKzFAs59HysObknoxna4oE3XByBFgVcfJoa2sY1kBMDQd8WKAGZ8ZjW8NNnQh6tDSsJfHS4Xj0hMykgmrITgBKyLUWtrW+4MtQk3dYfeKmw7C1ECgnz6MzMVjmCaf8C7FCAlKBTuWp4VYY1jnxE7sf5BWskYVXhp1AamLhBayhgCi5vVHtG9aSJDJ1t7U+Hsp8j+bDwgbNN8QQ9k3FEENYrCMKqyaZrGw9ukkE9Inl0aKw5iST2Najm/wAv5Cx1FASVkFC2VofsTaJGK9CUGwqCAubTvduNOpdDMdrBWgN3G2tMn7Vd0zkDxZW6OTuqrkzOV4DQbRVwybXDSvWabsCS8iDVVFLstu3q6x7yvo51Id97lqBKwGuHr0SgYW18MxcFf0JPIfOp57lbB10H8C1L44a8mFp69PmSwWUx/3UUz9zU3qFVVscccEHN5WzNUGP5idAh9BJwwrsisC+tObsqflqmArCUi4/q5/bXHzIgRqKJvfSxgF4pN6Brd/hfrgEAsIKLraTgxWCXYDlVcqt9EEeXw07ErBad6TJAK0gkGnuhVh5j+bDKi0HFrTvhZVH4/DVcCEGK3e5RdSGeSd9kMdXQzFYEwsjBg3TmAyClZwoLAWEGLYWAAE8WjwaeDQHVgH+YIfWmlqooXw0WD0OrBo0lkNrxRhWekzbSZ6lYPXBtsHhhbgBTI+thpkYrIh187VGE96/R+NiWylYmlgXo7QCA++EPBrDqtAeC7sFnvC5FzXUX0aj+9FoeAXEArex7r180/jlqwCsHE5o3PQQRSgPS/dm6m8jd+9WrcV2h34TJQ/DNlh98BjBKPwulfdoPQ72zwlaij21obqM0P8VaGDNwXiH+c3b1TS1jQTRTtYM10Ao60ogJV8TCOZqAqArIUFcRxLO2bLk0t/f1NZuTQFWv+nuWatSOSVt6ak/1a97ciwA19Ht4+uL/Tx0WDJjjzmgVcCh+b1sBKzegUpYFQ8b3GJFxlxLR92XGVNHy4bm/dftYLVGKxyRgOto/R6G9gs/beWiS8N2LhhmpvBKDZG2BOEQUJUBfUswDtmAFiuQBIaZKclk8tXBwdXB0cu/CjTFqvjsjMchK1BHS4ZQm+ItWFNlRmofLMW5hXx09HK7WyiwJGxfFGwodXGAS0NM35KPjvoiuo7uIcnq3RuwnCpxsIOl/Oz8ATMPO8bmGUmwEUhDr3JZ6XcOzeNM5xo+YDZsokzlVsyQpWFtcln2bVA4txBS9athxYAFJLEoU9DZtCQKQazDuYWMy1ncxfiVuXxkhMJrSMsLwFRlSN/Szrrvx9TRCwVVnYY721yynRCLPzsLea9NRB3dO8VWARryHfh3EOsAfUs8iFXiYuCDZr0HBdtN22Oz19EVUCwL3bx3GvY1bUuzih10PT3OLaB6irRDPyt4yYG13EXX02P6ln4xALL5XrcLhfodFDuJ6ug8GVgLHdTU7qDYAbEO0rfsIyCFYWw+OARaK1vRu6+jp8lGtzvlf6duF5kDjnV4n2Hrkg0j58pgShtd5rD7OnqTbPaq1f5/Wu2ijMaxDucW82RgrbQBgu52ABZuseLcYv3bcNVW2CcBrP+fkTc119HTZKPIrdrp0VRHZbLv7hXmFi7Zao6FOlGjux0k8CDWgdzCYIXBQWIr9I/nJ6fn95wEmu6Evlha6+g729g2tEJ/lv3bzN/ev63lYPVHN4KrMNXRk8ic2+/9PL+4B6Uw80tvxmY/jualNEXOQm/u+4CqjOlb2Ar9j5t/fuD7fWzbIYft1O8j5A8hWHMZWNYWK06N/joSj9Y6vJB27bbXh5QLwOqdDix7HZ3j/dd9HlVHrxmqMddva6RgrbUBe22lbzkGK9yM9wXrsi5j+q++EIK10ILVKUrDDL6lKvZdLlkVriPnWSBYpmr9mYt1osmeBUfGwll+E7FlEhOgZGD1TgeWvcWagxAHvhbX3D+pI2NZjaKhrZatYIs1NrdwnHSsWjX3DLNICvZSBtZKAxamE+HcYg3SAVQjV8wzLGPNyBeiDD7XgIVjHW6xblhtwbc4YXRvP3oUYiYCy0nBMtXRqp2cHaqj50wKBm7pCYBlK/wrGOsic4s5G+BEm78dUFAmbXuWfKJZ6cFStFgnjPsA698YLWyZn0F2WAfNwhz4XA1W70wt1lbA01/xSUaHYiHjKZdBs7AZOw1YONbh3KJD7j0+cG4Mu6D9QAtGtrFjUMFYF5dbrIAVwldajIqqJWSWjDaxYG2UYNnraKD80Fn48XGxZwlNakagCre0VyagxRpbseXAilGx78dFPUlaUpfUMWmJsb0ySdRiLUEZjgygYSxLQhrejyaGtIaeyp2pju7BfmroWutRsHxR3Nz0N9v/Km5f40ItI9xINXgyUJWX7GvKRON89ah5eGKv174DkNlMHeFLSx2tXdLQOyaa9LYV29E0yVIBlqE0rNV7B0ommrQmsGoaShCY9T8zM7RYn9XLAhlet7Gv3QBqt4kdlcE6GucW2OPhdt1TOrCmjGe2kVgKQ4t1n/vpTDvL0ZnAWoZxFDAWZCBy9poWK+QE7h4sT8OGibU2ThOIdaDFChJWFWFnYwWrY+oD0680ieroEkC9Q7DAGeoGxk+diKrsANRQ1pAKrMix31LHTcQbG3Bu0Qsn/OaMnaxsYMUNlPfn8GJKzIWpju6FQw0lE3oXZrDKFHO/rbKOxrlFi6BGNXmTSrN+p1qC0YHSUE1VxmAh4Ot0Zhh007R9nPs6ndvqaKSXCPgqmYO3Lu4ZB8QXaVqsHQILAf+cDqwg3jLMyox4GutoDBaSNUkJ1uBMO0PwJzenoCqrwdow2JrLnTQHx65St1gFYCFZl0nBujOf38zsOxC0WK1g4dC7toO1ATQd3V7XmbE0BPm/4kQ1O1hBhCEv7bgQ0dm2QXUALEkHsjV+zxptCV7arLBJRVXeiGrDluWQ9EbNGuXHNDYrrAR2VMqI65VIxz13o4+S6yeN15cz057Sp1RU5U4UqVe8PylN4+A0HlGrRJs3pwqqsm5dOeZFlKZ0khhTzgzu3RcJqcoCUpXj9TA3Lb8iph1RG44aqJNtg1pL3uIaGMjUlHtTkKEKiChNs2+DagW1GNyctjCNONOL29WI6ksQHZyNqtxLNseVILvGNEkMVg+WmsJijMHDulVZsoZpjfoJnWk7OQW/oksf1k48WrQUTbFKtqF9QL6kxUqKwVqBrjIwQkb30RQrJjPMo50p3mzfO8uqAQJFUwPQOgYaqayjQS1VCULNjHdqhQysIAQYFHNGNsjATVuVp9EKP8fZYm75ykmw5fyewf4j6q/iKVacW9zpDl8OuLLCGgVYHdi4z+gV8BOAi4ZzixVT5WPF8shSg+aBA0iygSIa9MsjcFQGoxlGqjL2RKjdvETaN0EpUVBRiuls+4ctynV1DyghhhYrtq4mdgt3A4v2AuS3QRBFMbDCCUBBrRwgwFvraEAx/hVJt6thNJnERdYqgAUn5PxZMMb+4MIBMimKdZJwWcacKHgceaT1IjK0zrekryRoQO6dn538uc4fCRCz0m6DGnKcAfbHgFInnce73eY8iLFm0yJje4s1GDKM0u183CIidj/8CCCxUx1kJi8htf6tpCpj7svy038HoznAmUa+7Rt3Hk+4a7L3iZja1EZVxt2+vZODg5NTh0YXcIbxlcEq2CoB36C4Zqm3KvfO6hQw9A8hXgRFfa3tZF1CiBSnS7BVeW7eJIkHJ/3Pg5s/19XhhRtVAbLeFFKLja3Fat+OWMUPi3ji4wQxWqBWLBzrcG6hvS+cGHRqyMmo78A56+poQH1UDXpgF4gfiwDotluzt1jtL9EXyYa2yLYVBKmNvY62p4CZ0Q6DLZNtoAmU8KZtUNo4jRs4pdK5EHiHcqE41inOeS+T3tNCacpk8X7AgAwH11rcDBbXKtMPApwdRfKO3TfOLUxuBrdcct1zERCku630B9eWSdW900kgzSGJgo5sr5tiVboZAi0LkIsgr0d62MFDmlqsOjfjr2N5Zp0qdyTFwa4SFkmn2walc/FVG03YyDXhlIZUDqIpUh64o0q1su13/gTEQY/FgtUq0PJZsgN3CuXKwWpE/yaMOJF3IcAjkovEsQ7nFjrVyoIiYxpJ7zTHjKZB65ftwB0MFvZa1VgcaExr+TII1nAtw+p9wgN3GmY0AfqBMp7tmYu1gIYUaDWpD65V6MKvcQQKwMMDRojBGq6BJQKejZmqLEwlG8Ai0fmaZcGABU5UkTO48DYowfBe62AwXkso6h3EKhsAWNLC54ER0StbrOKn+7bl7WCJtwKsAFhD+wVD5b8OIrAaRR2Nn+4H67Yr4GsAVgCsIKxE7uoo/cG1chLrO77XX6t8TZMNMrCG9lilVrZFwVK0HkDuugTWE+uJaUDX1SgXy59leK7H+Zd/3oDlX/+TIDTOcvznFwKDqPCn4DzFx+3sPYaAy8J16rZCFUEh70eOpgvXzZsLyWzvX7EUwE9Cke2Fg8+GwQroH54+uhfH5J1/CuJ2fh0+BobC5xQCr16c+bd3Vvzdrh2bAAgDARSdIcEFTDbwJgi4QjYRXF9S2ZlGEOT9AcLx7so8f+2ed7RcInqPraTl/Lg91zFJem9jLdfo4831vsM5ln6BBQsWLMGCBQsWLFiCBQsWLFiwBAsWLFiwYAkWLFiwYMESLFiwYMGCJViwYMGCBUuwYMGCBQuWYMGCBQsWLMGCBQsWLFiCBQsWLFiwBAsWLFiwYAkWLFiwYMESLFiwYMGCJViwYMGCBUuwYMGCBQuWYMGCBQsWLMGCBQsWLFi6APgULK3ba4GpAAAAAElFTkSuQmCC;" parent="1" vertex="1">
                    <mxGeometry x="1022.5" y="45" width="75" height="50" as="geometry"/>
                </mxCell>
                <mxCell id="y1teqzny498Lhfl6eGFe-14" value="獣害確認アプリ" style="text;strokeColor=none;align=center;fillColor=none;html=1;verticalAlign=middle;whiteSpace=wrap;rounded=0;" parent="1" vertex="1">
                    <mxGeometry x="1010.0000000000001" y="90" width="100" height="30" as="geometry"/>
                </mxCell>
                <mxCell id="y1teqzny498Lhfl6eGFe-6" value="" style="shape=image;verticalLabelPosition=bottom;labelBackgroundColor=default;verticalAlign=top;aspect=fixed;imageAspect=0;image=data:image/svg+xml,PHN2ZyB4bWxucz0iaHR0cDovL3d3dy53My5vcmcvMjAwMC9zdmciIHZpZXdCb3g9IjAgMCA2NCA4OCI+JiN4YTsgIDxwYXRoIGZpbGw9IiMxODgwMzgiIGQ9Ik0gNDIsMCA2NCwyMiA1MywyNCA0MiwyMiA0MCwxMSBaIi8+JiN4YTsgIDxwYXRoIGZpbGw9IiMzNGE4NTMiIGQ9Ik0gNDIsMjIgViAwIEggNiBDIDIuNjg1LDAgMCwyLjY4NSAwLDYgdiA3NiBjIDAsMy4zMTUgMi42ODUsNiA2LDYgaCA1MiBjIDMuMzE1LDAgNiwtMi42ODUgNiwtNiBWIDIyIFoiLz4mI3hhOyAgPHBhdGggZmlsbD0iI2ZmZiIgZD0iTSAxMiwzNCBWIDYzIEggNTIgViAzNCBaIE0gMjkuNSw1OCBIIDE3IHYgLTcgaCAxMi41IHogbSAwLC0xMiBIIDE3IFYgMzkgSCAyOS41IFogTSA0Nyw1OCBIIDM0LjUgViA1MSBIIDQ3IFogTSA0Nyw0NiBIIDM0LjUgViAzOSBIIDQ3IFoiLz4mI3hhOzwvc3ZnPg==;" parent="1" vertex="1">
                    <mxGeometry x="755.67" y="45.53" width="32.34" height="44.47" as="geometry"/>
                </mxCell>
                <mxCell id="y1teqzny498Lhfl6eGFe-8" value="" style="shape=image;verticalLabelPosition=bottom;labelBackgroundColor=default;verticalAlign=top;aspect=fixed;imageAspect=0;image=data:image/svg+xml,PHN2ZyB4bWxucz0iaHR0cDovL3d3dy53My5vcmcvMjAwMC9zdmciIGhlaWdodD0iNTEyIiB3aWR0aD0iNTEyIiB2ZXJzaW9uPSIxLjEiIHZpZXdCb3g9IjAgMCA1MTIgNTEyIj4mI3hhOzxyZWN0IHJ4PSI1My41IiBoZWlnaHQ9IjEwNyIgd2lkdGg9IjM3MyIgeT0iMzI4LjkiIHg9IjI3LjUzIiBmaWxsPSIjZWE0MzM1Ii8+JiN4YTs8cmVjdCB0cmFuc2Zvcm09InRyYW5zbGF0ZSgyNTQuOTEgNjkxLjcyKSByb3RhdGUoLTE0NCkiIHJ4PSI1My41IiBoZWlnaHQ9IjEwNyIgd2lkdGg9IjM3MyIgeT0iMjUwLjk0IiB4PSI1My4zMyIgZmlsbD0iI2ZiYmMwNCIvPiYjeGE7PHJlY3QgdHJhbnNmb3JtPSJ0cmFuc2xhdGUoNDU1LjA1IC0xMTUuNTMpIHJvdGF0ZSg3MikiIHJ4PSI1My41IiBoZWlnaHQ9IjEwNyIgd2lkdGg9IjM3MyIgeT0iMjAxLjkiIHg9IjEyMC41MyIgZmlsbD0iIzM0YTg1MyIvPiYjeGE7PHJlY3QgdHJhbnNmb3JtPSJ0cmFuc2xhdGUoMjUuOTIgNTQ2LjQ2KSByb3RhdGUoLTcyKSIgcng9IjUzLjUiIGhlaWdodD0iMTA3IiB3aWR0aD0iMzczIiB5PSIyMDEuOSIgeD0iMjAyLjUzIiBmaWxsPSIjNDI4NWY0Ii8+JiN4YTs8ZyBmaWxsPSIjZmZmIj4mI3hhOzxjaXJjbGUgcj0iMjYuNyIgY3k9IjEyOS4yOCIgY3g9IjI2NS44NCIvPiYjeGE7PGNpcmNsZSByPSIyNi43IiBjeT0iMjI1LjQ0IiBjeD0iMTMxLjQ0Ii8+CSYjeGE7PGNpcmNsZSByPSIyNi43IiBjeT0iMzgyLjYiIGN4PSI4MS4zNiIvPiYjeGE7PGNpcmNsZSByPSIyNi43IiBjeT0iMzgxLjY0IiBjeD0iMzQ4LjIyIi8+JiN4YTs8Y2lyY2xlIHI9IjI2LjciIGN5PSIxMjcuODkiIGN4PSI0MzAuNjciLz4mI3hhOzwvZz4mI3hhOzwvc3ZnPg==;" parent="1" vertex="1">
                    <mxGeometry x="509" y="88" width="62" height="62" as="geometry"/>
                </mxCell>
                <mxCell id="ZURjfdf_9gOF2QyeWpGf-37" value="Google Apps Script" style="text;strokeColor=none;align=center;fillColor=none;html=1;verticalAlign=middle;whiteSpace=wrap;rounded=0;" parent="1" vertex="1">
                    <mxGeometry x="490.0000000000001" y="150" width="100" height="30" as="geometry"/>
                </mxCell>
                <mxCell id="y1teqzny498Lhfl6eGFe-16" style="edgeStyle=orthogonalEdgeStyle;rounded=0;orthogonalLoop=1;jettySize=auto;html=1;exitX=1;exitY=0.5;exitDx=0;exitDy=0;" parent="1" source="y1teqzny498Lhfl6eGFe-9" target="y1teqzny498Lhfl6eGFe-12" edge="1">
                    <mxGeometry relative="1" as="geometry"/>
                </mxCell>
                <mxCell id="y1teqzny498Lhfl6eGFe-17" value="&lt;ul&gt;&lt;li&gt;データ連携&lt;/li&gt;&lt;/ul&gt;" style="edgeLabel;html=1;align=center;verticalAlign=middle;resizable=0;points=[];labelBackgroundColor=none;" parent="y1teqzny498Lhfl6eGFe-16" vertex="1" connectable="0">
                    <mxGeometry x="-0.1858" y="-1" relative="1" as="geometry">
                        <mxPoint x="-10" y="-13" as="offset"/>
                    </mxGeometry>
                </mxCell>
                <mxCell id="y1teqzny498Lhfl6eGFe-15" value="Google&amp;nbsp;&lt;br&gt;Spread Sheet" style="text;strokeColor=none;align=center;fillColor=none;html=1;verticalAlign=middle;whiteSpace=wrap;rounded=0;" parent="1" vertex="1">
                    <mxGeometry x="788.0100000000001" y="55" width="100" height="30" as="geometry"/>
                </mxCell>
                <mxCell id="ZURjfdf_9gOF2QyeWpGf-17" value="&lt;ul&gt;&lt;li&gt;定期実行&lt;/li&gt;&lt;/ul&gt;" style="edgeStyle=orthogonalEdgeStyle;rounded=0;orthogonalLoop=1;jettySize=auto;html=1;labelBackgroundColor=none;verticalAlign=bottom;labelPosition=left;verticalLabelPosition=top;align=right;" parent="1" source="ZURjfdf_9gOF2QyeWpGf-12" target="ZURjfdf_9gOF2QyeWpGf-11" edge="1">
                    <mxGeometry relative="1" as="geometry">
                        <Array as="points">
                            <mxPoint x="965.67" y="575"/>
                            <mxPoint x="965.67" y="575"/>
                        </Array>
                        <mxPoint as="offset"/>
                    </mxGeometry>
                </mxCell>
                <mxCell id="ZURjfdf_9gOF2QyeWpGf-12" value="Amazon CloudWatch" style="sketch=0;outlineConnect=0;fontColor=#232F3E;gradientColor=none;strokeColor=#ffffff;fillColor=#232F3E;dashed=0;verticalLabelPosition=middle;verticalAlign=bottom;align=center;html=1;whiteSpace=wrap;fontSize=10;fontStyle=1;spacing=3;shape=mxgraph.aws4.productIcon;prIcon=mxgraph.aws4.cloudwatch;" parent="1" vertex="1">
                    <mxGeometry x="815.67" y="520" width="80" height="110" as="geometry"/>
                </mxCell>
                <mxCell id="ZURjfdf_9gOF2QyeWpGf-11" value="AWS Lambda" style="sketch=0;outlineConnect=0;fontColor=#232F3E;gradientColor=none;strokeColor=#ffffff;fillColor=#232F3E;dashed=0;verticalLabelPosition=middle;verticalAlign=bottom;align=center;html=1;whiteSpace=wrap;fontSize=10;fontStyle=1;spacing=3;shape=mxgraph.aws4.productIcon;prIcon=mxgraph.aws4.lambda;" parent="1" vertex="1">
                    <mxGeometry x="1055.67" y="525" width="80" height="100" as="geometry"/>
                </mxCell>
                <mxCell id="ZURjfdf_9gOF2QyeWpGf-10" value="Amazon S3" style="sketch=0;outlineConnect=0;fontColor=#232F3E;gradientColor=none;strokeColor=#ffffff;fillColor=#232F3E;dashed=0;verticalLabelPosition=middle;verticalAlign=bottom;align=center;html=1;whiteSpace=wrap;fontSize=10;fontStyle=1;spacing=3;shape=mxgraph.aws4.productIcon;prIcon=mxgraph.aws4.s3;" parent="1" vertex="1">
                    <mxGeometry x="815.67" y="400" width="80" height="100" as="geometry"/>
                </mxCell>
                <mxCell id="ZURjfdf_9gOF2QyeWpGf-16" value="&lt;div style=&quot;&quot;&gt;&lt;ul&gt;&lt;li&gt;公開権限&lt;/li&gt;&lt;li&gt;アップロード権限&lt;/li&gt;&lt;/ul&gt;&lt;/div&gt;" style="edgeStyle=orthogonalEdgeStyle;rounded=0;orthogonalLoop=1;jettySize=auto;html=1;labelBackgroundColor=none;verticalAlign=bottom;labelPosition=right;verticalLabelPosition=top;align=left;" parent="1" source="ZURjfdf_9gOF2QyeWpGf-15" target="ZURjfdf_9gOF2QyeWpGf-10" edge="1">
                    <mxGeometry x="1" y="10" relative="1" as="geometry">
                        <mxPoint x="-10" y="-10" as="offset"/>
                    </mxGeometry>
                </mxCell>
                <mxCell id="ZURjfdf_9gOF2QyeWpGf-15" value="AWS Identity and Access Management" style="sketch=0;outlineConnect=0;fontColor=#232F3E;gradientColor=none;strokeColor=#ffffff;fillColor=#232F3E;dashed=0;verticalLabelPosition=middle;verticalAlign=bottom;align=center;html=1;whiteSpace=wrap;fontSize=10;fontStyle=1;spacing=3;shape=mxgraph.aws4.productIcon;prIcon=mxgraph.aws4.identity_and_access_management;" parent="1" vertex="1">
                    <mxGeometry x="1055.67" y="390" width="80" height="120" as="geometry"/>
                </mxCell>
                <mxCell id="ZURjfdf_9gOF2QyeWpGf-25" value="" style="rounded=0;whiteSpace=wrap;html=1;" parent="1" vertex="1">
                    <mxGeometry x="160" y="400" width="160" height="100" as="geometry"/>
                </mxCell>
                <mxCell id="ZURjfdf_9gOF2QyeWpGf-29" value="" style="shape=image;verticalLabelPosition=bottom;verticalAlign=top;imageAspect=0;aspect=fixed;image=data:image/png,iVBORw0KGgoAAAANSUhEUgAAA+kAAAPoCAYAAACiYb/aAAAACXBIWXMAAAsSAAALEgHS3X78AAAgAElEQVR4nOzdT4xV150v+p1AF2lKwoVbpM19SFWR1UYCtSEDIqGWMBkkA1qm3YPTM8dEsifu8JIrlXtky45s3SvFJaWvSHsSS8HtpzepQXKJLoP0IJjBLSlcycZX5jWWrFRd8druRteUkeDFxE4//Tbn4AKqoOr822ut/flIJTu2A+fsfTh7f/f6/X7rSxWwbhMLnZmqqma6//3+qqqmun//QPd/r7Ty3wMAlObMHe9nsaqqpe7fL1dV9U7v728cnH/H2Yf1EdKha2KhM7UiWO+/I3gfdpwAAAb2TjfA9wL9Yu/nxsH5RYcXhHRaaGKhc7i7Gh4/+7qhXAgHAGheL8S/tSLAv3Pj4Pyyc0NbCOkUq1uavr/789iKYA4AQF56gf2tFcFdCT1FEtIpQjeQH+6ujO+3Mg4A0Apnuqvv5wV3SiGkk6VuyXovlB82oA0AgBUD697qBXil8uRGSCcLK0L5Y1bJAQDYgHe6gb0O7kI7qRPSSdLEQidK1p8QygEAGLJeaP+vNw7O37mNHDROSCcJK3rK/0r5OgAAY/SL7ir7L2wDRwqEdBqzYrX8r1bsRw4AAE1Z7Ib2NwyhoylCOmPVDeZPdcO57dAAAEjVcjewR1n8L5wlxkVIZ+QmFjq91fInlLEDAJAhgZ2xEdIZCSvmAAAUSmBnpIR0hqY7/O1YN5wL5gAAlE4PO0MnpDOQiYXOVHe1/ClbpQEA0GIR0t+oquqkvdgZhJBOX7rl7N/XZw4AAHc52V1dtw87Gyaks24rVs2/b8s0AAC4ryiH/y9W19kIIZ376vaaf7/bb27VHAAANi5W1/+L3nXuR0hnTRMLncMrStoBAIDBnemWwp90LFmNkM5dJhY6sWL+ogntAAAwMkrhWZWQTq3bb/6D7sq5knYAABiP5RVhfdExR0hvOeEcAACSESXwPxTW201Ib6nuMLgXu8PgAACAdAjrLSakt4xwDgAA2RDWW0hIbwnhHAAAsiWst4iQXrgVPecvtv1YAABA5oT1FhDSC2UgHAAAFOvvu2Hd1m0FEtIL1N3n/MfCOQAAFKu3ddvfC+tlEdILMrHQOVxV1c+qqppp+7EAAICWWOyuqp90wssgpBegOxQuwvnhth8LAABoqXeqqvqPNw7On/EByJuQnrFu3/mL3d5zAACAX3TDuuFymRLSM6XvHAAAWEPdr37j4PxLDlB+hPTMTCx09nfDudJ2AADgXmI1/btK4PMipGdCaTsAANCnX3TDuinwGRDSMzCx0HmiOxhOaTsAANCP5e4U+L939NImpCesu3oe4fyJth8LAABgKM50B8u943Cm6cttPwCpmljoRFn7bwV0AABgiGK21dsTCx1D5RJlJT0x9jwHAADG5J1ur7pV9YRYSU9Id/X8bQEdAAAYg/1W1dNjJT0Bes8BAICGWVVPhJX0hnUnt+s9BwAAmhSr6r/uVvfSICvpDemunv+4qqpjrTwAAABAqmIC/F/bV70ZQnoDJhY68ZTq51VVzbTuzQMAADlY7pa//8LZGi/l7mO2YjicgA4AAKQqKn9/PrHQ+bEzNF5W0sfEcDgAACBT73TL3xedwNET0sdAeTsAAJA55e9jotx9xJS3AwAABVD+PiZW0kfE9HYAAKBQUf7+TdPfR0NIH4FuefvPunsNAgAAlGa5G9TfcWaHS7n7kE0sdGIw3K8FdAAAoGBROfz2xEJH5fCQCelDNLHQeak7IG6qmDcFAACwtp9NLHR+5vgMj3L3IdB/DgAAtJw+9SER0gfUDejK2wEAgLZb7O6nrk99AEL6ALoD4n6tvB0AAKC23A3qZxyO/uhJ79OKAXECOgAAwE11pbGBcv0T0vvQ/cAZEAcAALC6GCj3Y8dm45S7b1D3g/aDrF40AABAM07eODj/Xcd+/YT0DehuLaBsAwAAYP1Mft8AIX0duhPcI6A/kfyLBQAASI+gvk5C+n3YYg0AAGAoIqh/1xZt9yak34OADgAAMFTL3RV1QX0NpruvYcUe6AI6AADAcPS2aJOz1mAlfRUrArot1gAAAIbPivoahPQ7COgAAABjIaivQrn7CgI6AADA2PRK3+2itYKV9C4BHQAAoDEx9f2kwy+k1wR0AACAxrU+qFdCuoAOAACQkOhRP9PmE9LqkC6gAwAAJKX1w+RaG9IFdAAAgCS1Oqi3MqRPLHQimL9dVdVMAi8HAACA27U2qLduC7ZuQP+1gA4AAJCs3vZs+9t2ilq1kr4ioLfuRAMAAGQoVtS/duPg/HJbTl7bVtIFdAAAgHz0VtRbM0usNSF9YqHzMwEdAAAgO/vbFNRbEdK7Af1YAi8FAACAjYug/rM2HLfiQ/rEQucHAjoAAED2nuguwBat6JA+sdCJcP7jBF4KAAAAgzvWXYgtVrHT3buj+t9O4KUAAAAwXN+9cXD+ZInHtMiQPrHQmekG9NZMAAQAAGiZr984OP9OaW+5uHL37sS/nwvoAAAARft1d4G2KCX2pP/cVmsAAADFqxdoS9uaraiQPrHQiSFxhxN4KQAAAIxecVuzFRPSu5Pci57yBwAAwF1ia7aXSjksRQyO605y/7U+dAAAgNb66xsH53+R+5vPPqR3+w9ikntxAwMAAABYt+Wqqr6Z+8T3Esrdfy6gAwAAtF4s4P4s90FyWYd0g+IAAABYIftBctmG9ImFzhMGxQEAAHCHGCSXbVbMsie9u2H92wbFAQAAsIav59ifnutK+s8FdAAAAO7h5zn2p2cX0rt96PsTeCkAAACkaybH/vSsQro+dAAAADYgu/70bHrSu2UKv1XmDgAAwAZl05+e00q6PnQAAAD6kc3+6VmE9G55gv3QAQAA6EfMNXsxhyOXfLn7xEJnf3e7NQAAABjEX984OP+LlI9gDivp2U3jAwAAIEnJl70nHdInFjov2W4NAACAIZlKfSE42XJ3Ze4AAACMSLJl70mG9G75wdvdzecBAABgmJarqvrajYPzy6kd1VTL3X8goAMAADAiyZa9J7eSrswdAACAMUmu7D3FlXTT3AEAABiH5Ka9JxXSTXMHAABgjCKg/zilA55MufvEQid60H+bwEsBAACgXb554+D8mRTecUor6crcAQAAaEIyeTSJkD6x0DlWVdXhBF4KAAAA7TPTbb9uXOPl7t0m/d92ewEAAACgKbF3+mKTRz+FlfQXBXQAAAAS0HjZe6Mr6fZEBwAAIDGN7p3e9Ep6UqPuAQAAaL1Gc2pjIX1iofOEYXEAAAAkptEhco2Uu3eHxUWZ+0wTvz8AAADcw3JVVV9vYohcUyvpPxDQAQAASNRUd8j52I19Jd2WawAAAGQiVtPfGedLbWIl/ccCOgAAABkY+xC5sa6kTyx0Zrqr6AAAAJCDb944OH9mXK9z3CvpjW8MDwAAABsw1hw7tpA+sdA5bMs1AAAAMhNbsh0b10se50p6I5PxAAAAYEBjy7NjCelW0QEAAMjY2FbTx7WSbhUdAACAnP24u6X4SI08pFtFBwAAoAAR0H8w6rcxjpV0q+gAAACU4PujXk0faUi3ig4AAEBBRr6aPuqVdKvoAAAAlGSkq+kjC+lW0QEAAChQBPQnRvW2RrmSbhUdAACAEo0s744kpFtFBwAAoGAj2zd9VCvpVtEBAAAo2Uhy79BD+sRCZ8YqOgAAAIWL1fSh96aPYiXdKjoAAABt8P1hv8cvDfMX666i/3aYvyYAAAAk7Js3Ds6fGdbLG/ZK+kga5wEAACBRTw3zZQ07pA99qR8AAAASdqxbVT4UQwvp3fHzUz45AAAAtMzQqsqHuZJuFR0AAIA2GloeHkpIn1joxJZr+4fxawEAAEBmprrV5QMb1kr6UBvlAQAAIDNDWU0feAu2iYVO9KFfyezgAQAAwLB9/cbB+XcG+TWHsZJu2zUAAAAYwmr6MEK6gXEAAABQVU90q837NlBI7w6MG9p+cAAAAJCxCOhPDPLyB11JNzAOAAAAvjBQtXnfg+O6S/i/7T4pAAAAAG762o2D84v9HItBVtKfENABAADgLn2vpg8S0pW6AwAAwN367kvvK6RPLHRiWNxhJwIAAADuMjOx0OkrqPe7kj7QtDoAAAAo3F/18/b6Den2RgcAAIC1jWclfWKhs9/e6AAAAHBPUxMLnWMbPUT9rKQbGAcAAAD3t+GS935Cun50AAAAuL8nJhY6G9q6fEMhXak7AAAAbMiGFro3upKu1B0AAADWb0Ml7xsN6UrdAQAAYP1Gs5Ku1B0AAAA2bmKhs+6gvpGV9MPOBQAAAGzYukveNxLS9aMDAADAxg13JX1ioRNl7vudCAAAANiwqYmFzrqq09e7kq7UHQAAAPq3rpL39Yb0DY2MBwAAAG5jJR0AAAASsb/bSn5P9w3p3br5KWcVAAAABnLfBfD1rKQrdQcAAIDB3TdfryekK3UHAACAwQ22kj6x0Jmy9RoAAAAMRWzFds+Mfb+VdKvoAAAAMDxP3OtXul9If8yJAAAAgKG5Z862kg4AAADjc8+cvWZI148OAAAAw9fd6nxV91pJt4oOAAAAw9dXSNePDgAAAMO3Zt62kg4AAADjtWZr+b1Cun50AAAAGL4190tfNaTfq4kdAAAAGNj6Q7pSdwAAABipVfvS1wrp+5wLAAAAGJkNraTrRwcAAIDRWV9In1joTFVVNeNEAAAAwOisNg9utZV0q+gAAAAwenfl782r/JaGxgHAkE1tnqwe3Xp7odr0lh3VzJYdq/5G8e+mt3x1ZKdh6dN/q5Y+vbzqvzt/fbFa/uz6bf/s3fqfXRvZ6wGAlrprHtxqId3QOAC4h32TM9UDmybr/+CxbXtu/YePTs5UU91//sDmrdW+rSl3j+1Zx3+ztgjyn3SD/PLn16p3ry3e+m/funqh/usnn1+rzq/45wDAXe5aSf/Snf9gYqHzWz3pALRRb/V6akXAPrRtb/3Xm/9u9VVv7i9W7Xsr92evvlf/tbdif69VfQAo3Y2D87fl8tVC+r/7FABQol4I3zc5Xa9491a+H+3+b5p1c0V+6dbK/HK9Er8kxANQum/eODh/pvcebyt3X22yHADkpBfEowz9gc2T9Yq4VfA8xIOSQ932gaPbD9z1mnsl9rESL8ADUJDbKtnv7ElX5g5AFqIvPIJ3hPBHV/w95fqiBeHufvqzVy/cWoGPMB/BXT88AJkQ0gHIx8qVcWGctay1Ah+BPYJ7hPYYaGdKPQAJemzlS7ozpD/mjAHQlJWr4zGwTa84g4rPUu+hzvPdX6vX+x5l8xHiz3dDPAA0xEo6AM2rw/jkzTB+M5QPtiUYrFev933lZ05wB6BBt+Xw26a7m+wOwChMbZ6sHt06c6tkPcKRFXJSF8E9et2jXD5K5XtbxwHACHz9xsH5d6qVIb072f3XjjYAg4pV8nqFvBvI9ZBTilhlP9sN7FbbARiiv75xcP4X1R3l7lOOMAD9iDDeWymPcG67M0rV63E//tCR+h1GSI/A3ltpF9oB6NP+qqruCun7HU0A1qO3Un70wQNK12m1+LPw5I7D9U8ltAPQv+ne/3NlSH/AAQVgNb1QbqUc7u1eof2XV87Z/g2AtdzqDVzZkx796IcdMgDCzVXyvXrKYYh6Pe2nPj5nEB0AKy3eODj/teqOkP62kneA9ooVwF4wP7r9gE8CjFhvenwvsCuNB2i3Gwfn63y+MqTbfg2gZXp95RHKlbBDs3qr7G9ePlNPjgegdb524+D8Yh3SJxY6Mdn9is8AQNliv/LHtx+oe8sff/CAgW+QqFhl/+XH56pTV87VwV0vO0ArfPPGwfkzvcFxytwBCrVyErsydshDPEBbOYAuwnqUxRs+B1C0elv0zc4xQHl6/eVxg2/oG+QvHrD1HrLVfexXflOHdn3sAEWp90q3kg5QCMEc2uFQvRXinmpu+ljdxx497AI7QDl6IX3KOQXIj2AO7RZ/7vdNH7sV2E98eFpJPEC+9lUrQvoDTiRAHnrD3/SYAytFYH/94Wfrf6KHHSBLt/WkK3cHSFxvxVwwB+5nZQ97XQ7fDe0ApM/gOICE7Zuc6U54fsx2aUBfelPiY1u3Ny+/ZR92gHTVW3r09kl/22o6QBqinD1C+fGH/rLuOQcYtt7AuQjtyuEB0nHj4PyXeiH9350XgGYpZweaoBweIB1COkDDYqX8O91SVKvmQJNiC7cI7P94+Yzt3ACa800hHaABVs2BlMXKem//dQDG6ptfmljoRC/62447wGhFr/nxh45YNQeyESvqJz76b3rXAcanDukxQe7XDjrAaBzatrf6zo7H6nAOkKtYWT/x0WmT4QFGS0gHGJUI5cd3Hqn2bZ1xjIFinL16oe5bj9AOwND9RyEdYIh6Je3f23nEvuZA0XqD5mJ1XSk8wND8UEgHGILoMX9hV0dJO9BKEdZfvjRvKjzA4H64uaqq/Q4kQH+i3zzC+aFtexxBoLWe7G4lGVPhT3x4ujp79T0fBoA+RUifcvAANka/OcDdYlvJ+NG3DtC/zY4dwPpFOI+Vc1uoAawtqoviJ74vowxeWAdYv02bnt4bDZSaKAHWEMPgnvsPT1Tzu5+r/uZP/qL+3wDcX3xfHn3wQPWdmNfxpap6/3f/Uv3uD7935ADWtiikA6yhF87f/LPvV9+e2l995csTDhVAH+L7NL5Hn/nTb1V//OWJ6t3rS8I6wOqWlbsD3ME2agCjEd+pz+/q1N+vP/nwtO3bAFYhpAN0CecA4yGsA6xNSAdaTzgHaIawDnA3IR1oLeEcIA3COsAXhHSglV7o3gwK5wDp6IX12O7S1m1AW33ZmQfaJG783v/6P9Q3gQI6QJqmt+yoXn/42fr7Or63AdpESAda4dC2vfXNXtz0xc0fAOnrhfXfPPqj+nscoA2UuwNFi5u6KG0/tG2PEw2QqX1bZ6p/2vNidfbqhWp26WR1/tqiUwkUS0gHihSrLy90+xoBKEM8cP3Nn/+o7lWPnvWlTy87s0BxhHSgKL2J7dFzDkCZ4gHs4w8eMAkeKJKedKAYcdN28es/EdABWqA3CT5W1lVNASUR0oHsRd95DBWK4UImtgO0S2+43D/teclwOaAIQjqQrbgxm9/9XD1MKIYKAdBe0a8e14P6ge1mD2yBfAnpQJZiKFysnh/dfsAJBOCWXuvT8Z1HHBQgS0I6kJXefufRh6i0HYDVxPVhbvpYfb1QAg/kRkgHsrCytD3+HgDuJ64XSuCB3AjpQPKiZFFpOwD9UgIP5MQ+6UCy9k3OVD99+FlD4QAYWK8E/uj2b1SzSyer89cWHVQgSVbSgeRESeLczLF671sBHYBhiinwcX2JAaRK4IEUCelAUuo9z//8R9Xxh5QkAjA6MYA0rjcGywGpEdKBJMRqhsFwAIxTb7BcVG9ZVQdSIaQDjTv64IF6oI/BcAA0Iaq3YlU9rkcATRPSgcb0Vs/nH3nOnucANKre6vOR5+rrklV1oElCOtAIq+cApCiuS/X1yao60BAhHRgrq+cApC6uT3Gd0qsONEFIB8YmJuhaPQcgF71edRPggXES0oGR6+17HhN0rZ4DkJOVE+ABxkFIB0Zq3+SMfc8ByF69qv7oj+rrGsAoCenAyLywq1MHdPueA1CCfVu7D553evAMjI6QDgzdzdLAl6rnd3UcXACKMzd9rL7OGSoHjIKQDgxVbFkT5YCHtu1xYAEoVlznYhiqoXLAsAnpwNDEUB1bqwHQFnG9M1QOGDYhHRhYlLfH6rnhcAC0UW+onBkswDAI6cBAeuXtMUwHANqqHir36I/q6yLAIIR0oG/K2wHgC3E9jOui8ndgEJsdPWCjopxvfvdzVs8BYBVR/h7XyM77r1bLn11ziIANsZIObEhMsVXeDgD3Zvo70C8hHVi3F3Z16im2ytsB4P5609+P7zRYFVg/IR24r6nNk3V5+/O7Og4WAGzQ3PSx6vWHn62vpwD3I6QD97Rvcqb61Z4Xq6PbTasFgH49ueNwfT21TRtwP0I6sKbYRiZuKPSfA8Dgetu06VMH7kVIB1YV/XO2VwOA4er1qcfKOsBqhHTgNtEvF31z0T8HAIxGXGvjB+BOQjpwSwT0X3m6DwBjEdfbKH83UA5YSUgHajEgLvZz1X8OAOMT1916/suk6y9wk5AO3BoQp/8cAMavF9QNlAMqIR2IUjsD4gCgWQbKAT2bHQlorxhY42YAANIR1+aZLTuqly/NOyvQUlbSoYV6E9wFdABIz/O7Oia/Q4tZSYeW6U1wNyAOANIVD9Knt3y16rz/arX82TVnClrESjq0yPSWHQI6AGTi0LY9Nwe72qINWkVIh5aIrV1iL1YBHQDyEdft3/z5j2zRBi0ipEMLxIXdFmsAkKdblXCCOrSCkA6Fswc6AOQvruOCOrSDkA4Fswc6AJQjrudR+m53FiibkA6Figu47VsAoDy2UYWyCelQIAEdAMomqEO57JMOhXlhV6d6flfHaQWAwvUeyL95+YxTDQUR0qEgnqoDQLsI6lAe5e5QCAEdANop7gHmZo45+1AIIR0KIKADQLsdf+iIeTRQCCEdMiegAwCVwbFQDCEdMiagAwArCeqQPyEdMiWgAwCrifsDPeqQLyEdMiSgAwD3Ej3q7hUgT0I6ZCb2QXfRBQDux0N9yJOQDhmJC+3zuzpOGQCwLoI65EdIh0wYBAMA9ENQh7wI6ZABAR0AGISgDvkQ0iFxAjoAMAxxP7FvcsaxhMQJ6ZCwuJDOzTzlFAEAQ/GrPS8K6pA4IR0SFRfQuJBObZp0igCAoYj7CkEd0iakQ4Kmt+wQ0AGAkYj7i/lHnqumNrvPgBQJ6ZCYuGDO735OQAcARubWgoCgDskR0iEhcaGsS9C2KkEDAEYr7jdiRR1Ii5AOCZmbfkpABwDG5tC2PXaRgcQI6ZAI+5cCAE2I+48XdnUce0iEkA4JiIujgA4ANOX5XR33IpAIIR0advTBA8rMAIDGxf2IrdmgeUI6NCguhD8V0AGARNhDHZonpEND6q3WHrHVGgCQjrgviQUEW7NBc4R0aEg8qY49SgEAUmJrNmiWkA4NqHu+bLUGACQqtmabmznm9EADhHQYM5PcAYAcHH/oiHsWaICQDmN0aNtek9wBgGzMzTxlkByMmZAOYxL95/O7Zx1uACAbMUiuHnRrkByMjZAOYzK/2yR3ACA/9UKDQXIwNkI6jIFBcQBAzgySg/ER0mHEDIoDAEoQg+SOPnjAuYQRE9JhhGLQSgxcAQAowU+jOtAgORgpIR1GJAasxIVMHzoAUIq4r6nvbwySg5ER0mFEfqoPHQAoUNzfzE2rFIRREdJhBI7vPFId3a5nCwAok5k7MDpCOgxZ9Gk9v6vjsAIARYu5O7E9GzBcQjoMkT50AKAt4n5nfrf902HYhHQYolhB14cOALRF3Z9u/3QYKiEdhiT2DY39QwEA2iTufw5t2+ucw5AI6TAEvTJ3AIA2mt89a1s2GBIhHYZg/pHn9KEDAK3V2z8dGJyQDgOK7dYObdvjMAIArRbbz9qWDQYnpMMAbLcGAPAF27LB4IR0GIDt1gAAvhD3Ra8//LeOCAxASIc+vWC7NQCAu0QbYLQDAv0R0qEPytwBANYW90nK3qE/Qjr0wfRSAIC1KXuH/gnpsEHK3AEA7k/ZO/RHSIcNiLItZe4AAOuj7B02TkiHDVC2BQCwfsreYeOEdFinKNeKsi0AANYv7p+OPnjAEYN1EtJhHaY2TypzBwDoUwzdjfsp4P6EdFiH+sKyyYUFAKAfcR9lwQPWR0iH+zi0bW91dLsSLQCAQRx/6Eh9XwXcm5AO9/G6PdEBAIZibuYpBxLuQ0iHe3jBtiEAAEOzb+uMvdPhPoR0WEOE8++5iAAADFX0phsiB2sT0mENczPHDIsDABiyuL+am1b2DmsR0mEVhsUBAIzOkzsOGyIHaxDSYRWGmgAAjNYLtmSDVQnpcIcYZhJDTQAAGJ1D2/bUK+rA7YR0WCGGmDzvqS4AwFi8YIgc3EVIhxWOP3TEsDgAgDGJ3XTi/gv4gpAOXXGRsIoOADBeseWt1XT4gpAOXYaXAACMny3Z4HZCOlRVtW9yxuASAICGxH1YVDUCQjrU5qaPORAAAA1S1Qg3Cem03qFte+stQAAAaE6spsd9GbSdkE7reWoLAJAG92UgpNNyVtEBANIR92VW02k7IZ1We/3hZ9t+CAAAkmI1nbYT0mktU0QBANJjNZ22E9JpLU9pAQDS5D6NNhPSaSWr6AAA6bKaTpsJ6bSSp7MAAGlzv0ZbCem0TjyVtYoOAJA2q+m0lZBO63gqCwCQB/dttJGQTqvYFx0AIB9x37ZvcsYZo1WEdFrF01gAgLwcf+iIM0arCOm0RjyFtYoOAJAXu/LQNkI6reEpLABAnlRD0iZCOq0QT1/jKSwAAPl5/MED1dTmSWeOVhDSaYXvCOgAANma2jSpKpLWENIpXjx1/d5OX+oAADlTFUlbCOkU7/HtB+qnrwAA5Ev7Im0hpFM8g0YAAMqghZE2ENIp2qFte23ZAQBQiNhON7bVhZIJ6RTtuF50AICiGCBH6YR0ihUr6Ee3H3CCAQAKEn3ptmOjZEI6xdKzBABQpid3PObMUiwhnWKZ/gkAUKbjD/2lM0uxhHSKdPTBAwbGAQAUKu7zYkAwlEhIp0hW0QEAyvYdJe8USkinOAbGAQCUzwA5SiWkU5wodQcAoHyPW5ihQEI6xTFIBACgHY7vtGc65RHSKcq+yRkD4wAAWmLfVvd+lEdIpygGxgEAtMvxnaooKYuQTlGeNOUTAKBVDAymNEI6xYiBcVObTPgEAGiTKHePlkcohZBOMTxFBQBoJy2PlGSzs0kpHrf1WpLOXr0wtpf16OS0aopELH16uf4Zh1hBaXJoUJvea058BhmnBzZvrQeY0ZxoeZxdPOkMUAQhnSIodU/PK5fmqxMfna6WP7s21tcWT9LnZp7yeWhIPJR5+dJ8dfbqe2N9AVHmOFETYEMAACAASURBVDd9rDq0bc/Yfs/z1xer2cU3WvFec9LUZ/DQtr3VC7s6rfgMsrp4UDM3c0xlX0Piuh/3g6c+PtfK909ZNm16em/UhqgPIWvP/Ycn9CIlYvnza9Xj//yfqzcvn6l+94ffj/1FvXt9sZr/3/+9OvTA3uqhP5pK9CiVKc555/1XG1nR+9ffL9e//8yY+hJPXTlX/c37c9XF/+//Hfnvdadxv9ecNPkZjN9znOclfq/H//k/WUFPyCefX6+vP3FOjqrua8Snf/h9/f0MmVvUk04RlLqn45UGVrDuFDdIz3zwWrLHqESxovd0Asc8XsOoWyx6n69xV4ncKd6rm9EvxHlv02dwdumNkf4e9C8eoPiz2Qz3g5RCSCd7St3TETeOJz48ncTrOX9tsb5RYjyi5DYVT3/wDyN9JVFK3XRA74mHBVZSb4rzkopRv5aUPoOsTm90M+J+MFpPIHdCOtnT+5WO1ELxP15+K4FXUb5ocUipJzZCa6zsj8ovE1ohi6AW5d1tF+c8pc9gvJZRPjzxADJ9Nz+T4xucyhe0GlACIZ3sKW1KxyiDUT8MUxqPd68tJfeaPvns+kh+3fiMp7aCGVUjs0vtXrVLsZpgVK9J8MuHa1AzLN5QAiGdrEVJk1L3dCyPKBhBKkYV/gcVbSZ6YAFuTtk3VJPcCelkTUkTwE360wFusppO7oR0suZLGOCmKMNPYbo5QNO0QpI7IZ1sRTlT/ABwU/TAvpLQlHOAJuzbOuMekawJ6WRLqTvA3WJ7LsPFgLazFRs5E9LJli9fgNXFtmyxNR5AW1nMIWdCOtnSjw6wunr/9Itzjg7QWoe27XHyyZaQTpasogPcm/50oM1ii15bsZErIZ0sKWECuL/oTz9/fdGRAlpJ1SW5EtLJkhImgPXpXNSfDrSTyktyJaSTnanNk/XWGgDc39Knl6tn7J8OtJBFHXIlpJMdX7gAG3Pq43PViY9OO2pA61hNJ0dCOtnxZQuwcbOLJ/WnA63zmMUdMiSkkx0r6QD90Z8OtI3FHXIkpJMV/egA/dOfDrSNxR1yJKSTlUcFdICBRH/6m5fPOIhAa1hNJzdCOlnRVwQwuNmlN/SnA62xb3LaySYrQjpZ8SQUYHDLn12ry971pwNt4P6R3AjpZEVfEcBwnL+2WM0uvuFoAsVz/0huhHSysW9SPzrAMEVvuv50oHRTmyar6S07nGeyIaSTDUPjAIZPfzrQBhZ7yImQTjZ8uQIMX68/HaBktvAlJ0I62fDlCjAadX/60klHFyiW4XHkREgnG4Z+AIzOiQ9PV6eunHOEgSI9ahs2MiKkkwWl7gCjF2XvS59edqSB4hgeR06EdLJgaBzA6EV/euf9Vx1pGALl1emx6EMuhHSyMOPJJ8BY6E+HwcWKrTa99JhvRC6EdLLgaTTA+OhPh8HMzRxzBBP0qJV0MiGkkwXDPgDGK/rTlz+/5qjDBh3feaQ6uv2Aw5YgPenkQkgneVObJ+thHwCMT92ffnHOEYd1in7n+d3PVXPTVtFTpdydXGx2pkidoXEAzTh79b3qlUvz1fO7Os4Aa3pyx+HqOzsOt/oAxQqtVdo8xMOUmL0BKRPSSZ6LHkBzXr40X88FMQSLtcwYkkZG4r5SSCd1yt1JnsnuAM2Kbdn0pwMlUPJODoR0kmeyO0Cz9KcDpVChSQ6EdJL3wOatThJAw3r96QA5m97yVeeP5AnpJE9ZEkAaoj/9/HW9nEC+bOtLDoR0kqYkCSAtnYv604F82daXHAjpJE1JEkBalj69XD3zwWvOCpAt845InZBO0qykA6Tn1MfnqhMfnXZmAGAEhHSSZvs1gDTNLp7Unw5k6TH7+pM4IZ2kWUkHSJf+dAAYPiGdpOlJB0hX9KfPLr7hDAFZ0ZNO6oR0AKBvb14+U/8AAMMhpJO0Q3qGAJI3u/SG/nQgG9opSZ2QDgAMZPmza/W2bPrTgRwI6aROSCdZvkAB8nH+2qL+dAAYAiGdZBkaB5AX/elALgyPI2VCOgAwNNGfHlPfAYD+COkkS7k7QH6iP73z/qvOHAD0SUgnWTNCOkCW6v70pZNOHpCsfZPTTg7JEtIBgKE78eHp6tSVcw4skKSpTZNODMkS0gGAkYht2fSnA8DGCOkky9RNgLzpTweAjRPSAYCR0Z8OpMhiECnb7OwAAKMU/elHt3+jOrRtj+NcoLeuXqiqS/Otff+xG830lq/6fANDI6QDACMXZe8Xv/4Tw5oKdPbqe/VP20VYf2FXp3pyx+G2HwpgQMrdSdYDm7c6OQCFqPvTL845nRQrhiQ+/cFr9Q/AIIR0krVv64yTA1CQWG19pcVl0bTDm5fPVCc+Ou1sA30T0gGAsXn50nx1NnqYoWAeRqUv2hMgVUI6ADBW0Z++/Pk1B51iRXuHh1FpE9JJmZAOABk7vvNIdjeb+tNpA8P0gH4J6QCQsZiW/vrDf5vdG4gAo28XAO4mpANA5mJ/5tj6KTeziyer89cXffwAYAUhHQAK8PyuTnVo297s3kjnov50AFhJSAeAQszvnq2mNk9m9WZib+ln7CsNALcI6QBQiOhPn3/kuezezKmPz+lPB4AuIR0ACqI/HQDyJqQDQGGiP33f5Ex2b0p/OgAI6QBQpCh7z7E/fXbxjQReCQA0R0gHgAJNb9lR/fThZ7N7Y29ePlP/AEBbCekAUKij2w9Ux3ceye7NzS69oT8dgNYS0gGgYHPTx7LrT1/+7Fq9LZv+dADaSEgHgMLl2J9+/tqi/nQAWklIB4DC6U8HuF0MqoRUCekA0ALRn/7kjsPZvdHoT3czDQyb7xVSJqSTrLNXLzg5AEM0N/NUlv3pnfdfTeCVAMB4COkA0BJTmybrsvcs+9OXTibwSgBg9IR0AGiRfVtnqrnpp7J7wyc+PF2dunIugVcCAKMlpANAy0Rveo796bEtmz5SAEonpANAC+lPB9rs7NX3nH+SJaSTLF+eAKPT60/PTfSnv3Jp3icDgGIJ6QDQUnV/+syx7N78y5fm7QACQLGEdABoseMPHamOPngguwMQZe/Ln19L4JUAOfL9QcqEdJK1aDgQwFhE2fv0lh1ZHey6P/3iXAKvBMjR+WtLzhvJEtJJlgm+AOMR/enzu5/L7mjH7BL96QCURkgHADLvTzdolPQ8sHnSWUnYJ8rdSZiQTrKWPv03JwdgjHLtT3/ZajoJOrRtj9OSsNgpAlIlpJMs5e4A4xf96VNWAGEgMeMhqlMA+iGkAwC31P3pj+TXnw4pybF1pE0sBJE6IZ2k2QcXYPyiTPeFXR1HHvrw+sPPVke359c20iZCOqkT0gGAuzy/q1Md2rbXgYF1ij8v/7TnperJHYcdssTZI53UbXaGSNn564sGrwA0ZH73bLX77e/Ve5LDWiKUfqflwfTRyem6VYQ8vGtoHIkT0knaJ24MARrT60//1oWXnATWNLNlhwfqAEOk3J2kLeoZAmiU/nSgNG+ZeUTihHSSZrAHQPOiP33fpO2kAGAchHSStvTpvzlBAAmIsnf7pwMlOHv1PeeRpAnpJM1KOkAaprfsqH768LPOBpA1k93JgZBO8mLCOwDNi72fj+884kwA2Xr32pKTR/KEdJL3yWfXnSSARMxNH9OfDmRLKyU5ENJJnr4hgLToTwdypZWSHAjpJM82bABpif70uemnnBUgO7ZfIwdCOsnzxBMgPU/uOFz/AOTkE4PjyICQTvLeNTgOIElzM0/pTweycv6a+0rSJ6STvOXPrtkuAyBBU5sm623Z9KcDObBjELkQ0smC7TIA0rRv64z+dCAL71pFJxNCOlnw5BMgXfrTgRyYc0QuhHSyoH8IIG3Rnx5T3wFSZbI7uRDSyYLhcQBpi/70+d3POUtAstxPkgshnSxYSQdIX92fPnPMmQKSE6XuMYwYciCkkw196QDpO/7QkerogwecKSAp7iPJiZBONkzkBMhDbMumPx1IiftIciKkkw1PQAHyoD8dSI2hceRESCcbZ325AmRDfzqQEkPjyImQTjYMjwPIS/SnH9q211kDGhXVmIbGkRMhnaxYTQfIy/zu2Wpq86SzBjTG/SO52eyMkZOzV9+rDm3b45yxbq9cmm/1wXpg82T9ZyZKj6EJdX/6I89V37rwkuNfqLrXt+XftY9OztTftfF5Jz2qMcmNkE5WDI9jo15u+Y1jT5Qcz808JazTiAgvL+zq+PNYqHiAHj9tFxUj0eLx/K5O2w9Fcnw+yY1yd7KiXAn6Ezco377wQw+6aEwEF/3plCx6nuNB1NMfvOY8J2Tp08v1D+RESCcrcQEUMqA/8ecngvry54bn0Az96bTBm5fPtL7VKiVW0cmRkE523tVXBH2LoP6TD087gDSi158OpTvxke/ZVNgfnRwJ6WTHly0M5tSVc44gjYn+9OM7jzgBFC0eiGrRS4OVdHIkpJMdX7YwGFNuadrc9LFq36QhhpTN/Urz9KOTKyGd7MSXrb50gLxF2bv+dGCUPCghV0I6WVJCBpC36S07qp8+/KyzCIyM9i5yJaSTJU9GAfJ3dPsB/enAyFjUIVdCOlnypQtQBv3pwCjEvWIM8IMcCelkydRUgHLoTweG7dSV3zimZEtIJ1u+fAHKEP3pc9NPOZvA0FjMIWdCOtny5QtQjid3HK5/AAZV7wRku1EyJqSTrfjytfclQDnmZp7Snw4MzFR3ciekkzVT3gHKMbVpst6WTX86MAj3h+ROSCdrnpQClGXf1hn96UDflj+/Vp362P0heRPSyZovYYDy6E8H+vVL94YUQEgne1bTAcoT/ekx9R1gI9wXUgIhnexZTQcoT/Snz+9+zpkF1k2pO6UQ0sneLz0xBShS3Z8+c8zJBdZFqTulENLJ3vJn15Q2ARTq+ENHqqMPHnB6gftyP0gphHSKoLQJoFyxLZv+dOBelLpTEiGdIih5ByiX/nTgfpS6UxIhnSIoeQcoW/Snv7Cr4ywDqzrx0WkHhmII6RRDiRNA2Z7f1akObdvrLAO3Wfr0cnX+2qKDQjGEdIqh5B2gfPO7Z6upzZPONHDLm5fPOBgURUinGFHy7ksaoGx1f/oj+tOBL/yj+z8KI6RTFH3pAOU7tG2P/nSgdvbqhbrcHUoipFOU6EuPLTgAKJv+dKCyik6hhHSK8+blt5xUgBbQnw7tFgszWh0pkZBOcXxZN2dq89a2vnVaYnrLDqc6IdGf/tOHn23Ve37A92w2HvAAaeQszFAqIZ3ixBYc56/bhqMJSk/zcPTBA0N9nY9OTif3vkcVpuPXTW3l9vEhn8/cHN1+oDq+80hyr3pUfy5iv3jVA3mI2QmM1okP/5sjTJGEdIp04sPTTmwD4maZ9p2nWM18csfhof6ag4iHRaNc8T7+UDqBMN5nhLa2m5s+Vu2bTOc4xGcw/lyMyuO+a5Pnz+boGRhHyYR0ihR7phsgN35xU2LictoiPIwiUMd5T2F1L17D3MxTI/09vrfzSDIrma8//LcJvIo0xLZsbfkMxq9vNT1t/myOnoFxlExIp0ixZ/ovP7YdWxNi4nJKq6p8IVYaY9DWKMQDml/tebHR4FCHo+mnRr56FSukTb/Xqg4BzyqnXSGVz2C8hrZ8BlmdP5ujFyvoZhBRsk2bnt4bd9PuqCnO0o3L1TN/+i0ntgHR8xyB8F9//4lStAREePk/d/5l9eaf/aD6ypcnRvaCHvqjqepv/uQvquXPr1f/68bl6nd/+P1Y3nwElc6f/EX1f/3ZD8Y2FyHea3y//PGXJ6p3ry+N7b1W3T9fcS6/PbV/bL9nLnrn5dN//331/u/+pZHP4O4//j/G8nv23mt8z47zzxtr82dzfH7y0em63B0KtfiliYXOS1VVvegMU6LfPPojPWEJcCFtTgyvGmVv7L3EA5pRP6SJBxApTFwfx3uNqd6+zzbGZ5Bx8Gdz/P70f3y3rpqEQp3Z7MxSshgg93rLtudJkbK/dkolvIxDm95rTnwGoTxR5i6gUzo96RSt/iI3QA4AoAgnPrKDD+UT0ineT2zHBgCQvWifO39t0YmkeEI6xbNFBwBA/l6+NO8s0gpCOsWzTQcAQN7ifu7s1fecRVpBSKcV/vHyW040AECmrKLTJkI6rRBPXm0DBgCQH1WRtI2QTmvoTQcAyI9VdNpGSKc14glsPIkFACAPVtFpIyGdVvEkFgAgHwI6bSSk0ypW0wEA8rD8+bXqxEennS1aR0indTyRBQBI308+PF0tf3bNmaJ1hHRaJ57IxpNZAADSZBWdNhPSaZ14IhtPZgEASNMrl+atotNaQjqtZDUdACBNMT/ohAUVWkxIp5WspgMApMluPLSdkE5rWU0HAEiLfdFBSKfFrKYDAKTFKjoI6bSc1XQAgDScvXrBKjqtVwnptJ3VdACANFhFh5uEdFovLgjR/wQAQDNiFf3s1fccfVqvEtLhJk9uAQCa8/QH/+DoQ5eQDlVV9z9ZTQcAGL+YEeQ+DL4gpEPX0x+85lAAAIxRDPB9RUUj3EZIh67og4p+KAAAxiMCegzyBb4gpMMKs0snHQ4AgDGIEvcTdtmBuwjpsML5a4v25wQAGAOthrA6IR3uEJPeoz8KAIDROHXlnC3XYA1COtwhSq9+ovQKAGAkYjFkdlGLIaxFSIdVxGq6rUAAAIYvFkPcZ8HahHRYgyFyAADDdf76Yr0YAqxNSIc1nPr4nC3ZAACGaHbxDYcT7kNIh3t4+oN/cHgAAIYgdtAxLA7uT0iHe4h+qVeUZAEADKQeFrdkFR3WQ0iH+zjxkeEmAACDeOaD16rlz2xxC+shpMN9xAXl6Q9ec5gAAPoQM35i1g+wPkI6rEP0T5264uICALARUeZuxg9sjJAO61SXaX2uTAsAYL1ito+2QdgYIR3WKcreDZEDAFifKHM/8eFpRws2SEiHDYgLjb3TAQDuTZk79E9Ihw2KC46ydwCAtSlzh/4J6bBB9k4HAFibMncYjJAOfVD2DgBwN2XuMDghHfqk7B0A4Hazi28oc4cBCenQJ2XvAABfOHXlXPXm5TOOCAxISIcBKHsHALhZ5v7MB685EjAEQjoMqPP+q8reAYBW61ycq5Y/cz8EwyCkw4DiguTJMQDQVic+isrC95x/GBIhHYbg1Md6sACA9jl/fbGaXTzpzMMQCekwJLNLppkCAO2hDx1GQ0iHIYmy9+hPBwBog9hu7fy1RecahkxIhyGKC5Vt2QCA0kWbn1Y/GA0hHYbs5UvztmUDAIpV96EvveEEw4gI6TACtmUDAErU60O33RqMjpAOI1D3p1+cc2gBgKLoQ4fRE9JhRGK/UP3pAEAp9KHDeAjpMELRn37qyjmHGADImj50GB8hHUYs+rbsnw4A5EofOoyXkA4jZv90ACBnEdD1ocP4COkwBnFhe/qD1xxqACArMV/n1Mda92CchHQYE8NWAICcnL16oZ6vA4yXkA5jFKvpMXgFACBlMU9Hux40Q0iHMfv2hR8aJAcAJCsGxUVANygOmiGkw5j1BsnFBRAAIDUGxUGzhHRoQFz4ZhftNQoApMWgOGiekA4NiSFyrxjGAgAkIu5NDIqD5gnp0KC4EJr4DgA0LQbbzi6p8oMUCOnQsLggmvgOADQl5uTEYFuD4iANQjo0LC6IJr4DAE0Q0CE9QjokwMR3AKAJMcjWJHdIi5AOiYgLZDzJBgAYh9mlk2bjQIKEdEhIBPWnP3jNKQEARirC+YkPTzvIkCAhHRITF01BHQAYlbNXL7jXgIQJ6ZCg+un2R55uAwDDFTvKxBwcIF1COiRqdlGfGAAwPCa5Qx6EdEhYlKIJ6gDAoAR0yIeQDombXXqjLk0DAOhXBHRbrUEehHRIXDzxri+sgjoA0IeozBPQIR9COmRAUAcA+qF1DvIjpEMmBHUAYCNipxgBHfIjpENGBHUAYD0inMdOMUB+hHTITAT1zsVX6ymtAAB3iof5UeYO5ElIhwwtfXr55jYqgjoAsEIE9LhHAPIlpEOmYkqroA4A9NgLHcogpEPGBHUAoBLQoShCOmROUAeAdusFdHuhQxmEdChAL6ib+g4A7fPMB68J6FAQIR0KIagDQPvEFPdTH59z5qEgQjoUxD7qANAeEdBjP3SgLEI6FEZQB4DyzS6dFNChUEI6FEhQB4ByRTg/8eFpZxgKJaRDoXpB3VN2AChHXNejzB0ol5AOBYugrl8NAMogoEM7COnQAoI6AORNQIf2ENKhJeLC7uIOAPkR0KFdhHRoERd5AMjLqSvnXLuhZYR0aJkI6t+68MNq+fNrTj0AJCx2aXlGQIfWEdKhhc5efa+e/C6oA0CaIqDX1+rPXKuhbYR0aKnz1xar3W9/z17qAJAYAR3aTUiHFuvtpR79bgBA8wR0QEiHloubgM7FV23RBgANE9CBSkgHemzRBgDNEdCBHiEduMXkdwAYPwEdWElIB27Tm/xuoBwAjF7MhRHQgZWEdOAuMfndQDkAGK2oYIu5MAI6sJKQDqyqN1DulUvzDhAADFkEdLNggNUI6cA9vXxpvuq8/6o+dQAYEgEduBchHbivUx+f06cOAEMgoAP3I6QD66JPHQAGI6AD6yGkA+vW61OfXTrpoAHABpz46LSADqyLkA5s2IkPT1ff+J9/p08dANYhwvnsogfcwPoI6UBfovx999vfq85eveAAAsAaIqBHmTvAegnpQN+i/P1bF16yTRsArEJAB/ohpAMDi23avnXhh9XSp5cdTABaL9rBYvtSAR3oh5AODMXZq+/VfeqmvwPQZhHQ691QPnY9BPojpANDs3L6u6FyALRNL6DH3BaAfgnpwNDF9Pf6JuW6mxQA2iGueQI6MAxCOjAScZPyjXf/rt4XFgBKJqADwySkAyMV+8IaKgdAqXoBPVq+AIZBSAdGzlA5AEoU09ujakxAB4ZJSAfGojdULrakMVQOgNxFQI990AGGTUgHxiq2pNn99vesqgOQrdjFREAHRkVIB8bOqjoAuYpwHruYAIyKkA40xqo6ALmIh8oxCDXK3AFGSUgHGmVVHYDUxfUpJrjHIFSAURPSgST0VtWtUACQkthiLSa42wMdGBchHUhGrKpHr5991QFIQW8PdNckYJyEdCA5vX3VX7k07+QA0Ah7oANNEdKBJMVN0cuX5qtH3v7b6uzVC04SAGNz4qPTtlgDGiOkA0mLEsNvXXipvlkyWA6AUYvrzeziSccZaIyQDmQhyg5jsFysbgDAsNliDUiFkA5kI0rgY3Uj+tWVwAMwLLZYA1IipAPZiW1wlMADMAwxwT0qtWyxBqRCSAey1SuBNwUegH6cunKuXkE3wR1IiZAOZG3lFPi42QKA9YgZJ52LrwroQHKEdKAIMQU+brZi6E+ULgLAWkxwB1ImpANFiaE/33j37+obsAjuANBjgjuQAyEdKFLcgMUU+OhXN1wOgKiyMsEdyIGQDhSr169uuBxAu8W2nRHQTXAHciCkA8VbOVxOiSNAu8T3fmzbaUAckAshHWiN6FGPXnVhHaAd4js/fgByIqQDrdML69+qexMv+AAAFMaAOCBnQjrQWjE8KEoghXWAchgQB+RuszMItN3NsP5edWjb3uqFXZ3q0LY9bT8kAFmKB66d91/Vfw5kzUo6QJeVdYB8nfjotAFxQBGspAPcwco6QF5izoj+c6AUQjrAGnphfXrLjjqsP7njsEMFkJAYEGf/c6A0yt0B7sPWbQDpiQFxu9/+noAOFEdIB1inXlj/0//x3eqVS/P1Cg4A4xcPTL/x7t/pPweKJKQDbFDcFL58ab5ewYnQHuEdgPGYXTpZf/cClGrTpqf3RpOlRkuADfrdH35fvXt9sZ4oHEF9avNk3b8OwPBF9dLj//yfq/n//d8dXaBkiwbHAQxBlF7Gz77Jmer4Q0cMmQMYoug/71x8VeUS0ArK3QGGKAYY9YbM6VsHGFw8AI0J7gI60BbK3QFG4JPPr1dnr16o5v7lvyqFB+hT9J8//7/+77q9CKAllLsDjNqdpfCPP3igmto06bgDrCGqkDoX56qzV99ziIDWEdIBxqRXCj+1NFk9vv1AdXznkWrf1hmHH2CF6D+P8nbbqwFtpdwdYMx6U+F/+q//VP3yyrnqK1/+o2r6Kzuqr3x5wqkAWi2qjh7/5/+kvB1oM+XuAE26c3X9OzsOV4e27XFOgNaJ78II6QBtJ6QDJCDKOnu96zFg7vjOv6yObj9g2BxQvBiu2Xn/1fqhJQDK3QGSE5Phf7X8TnXio9P1hPgvVZVyeKBI8R337f/H9moAKyh3B0hZTDaOn145/NEHD9Qr7AC5e+XSfPXypXnnEeAOQjpABlaWw8ee66bDA7mK7dWe+eC16tTH55xDgFUI6QCZubN/PVbXn9xxWGAHkhfbq3Uuvqq8HeAevjSx0HmpqqoXHSSAvAnsQMriweLs0hv2Pwe4tzNCOkCBBHYgFVHePrv4hu3VANZHSAcoXa+H3dA5YNxsrwawYWf0pAMUbmUPe+iF9ccfPFBNbZp0+oGROHXlXD0gTnk7wMYI6QAtExOV66nKH1TVvsmZW4FdWTwwLLNLJ6sTH552PAH6IKQDtFiUoMZP7FXcK4t/bNseq+xAX6L/vHNxrjp79T0HEKBPQjoAtdvK4rur7Ie27amObv9G/VeAezl79ULdf668HWAwQjoAq+qtsvdKVqOX/dC2vXVgVxoPrPTKpfm6IgeAwQnpAKzLrV727sT4COtCO7Sb8naA4RPSAdiwKGddLbRHWO8Fd6BsytsBRkNIB2Bgt4f2myWvEdb3TU7fCu0G0UE5lLcDjI6QDsBIRPlr/PR62qe37OgOo9vbXXG32g65Ud4OMHpCOgBjsfTp5fqnVyIfIrQ/unWm/qvgDmlT3g4wHkI6AI3pTZB/8/IXr+DO4P7o5LRSeWiY8naA8RHSAUjKasE9SuWnt3y1emzbnlt/b9UdRk95+//f3v2DyH2eeQB/HZsxROCsDxxyELDM06gBHgAAFnlJREFUFQc+iDaFA9Mk6yJXGJKTiimDLVCa40IsEOmCbZwuB5ZRrOaKrM7lFNkooOIar9xMocK7DjbkYMksGCxOYE8MMmS4cMc7+441Gu2/mfn9/30+IBwivPub97chfPd53ucBKJ6QDkDlTVvl54PCYeFd5R2yob0doBxCOgC1dVR4D2m6/NoTX5+0zAvwsJgr+5tfDX0EoFhCOgCNNA3us4PqwtyU+elud+BA/KVXrJ7HKycAlENIB6BV5qfMrz1xJvzo6RcmLfM/+rsXVNpprZuf3wk/3buuvR2gZEI6AK0WA8m797Ynf8LewXT5nzyzEX789AuTqjs0XRwOd2V44+B/AwCU7rHOoPd6COE1rwIAHhYD+8++9ZIKO421++VwUj3X3g5QGdsq6QBwhBhcLu1dD2v7By3xP/v7l9xhpzGu3b012X+uvR2gWoR0ADjBbEt8HDj3y2/37GmntmJ7e6yezw9VBKAahHQAWECcGv/Djz8S1qmluPv80t47k+GJAFTT17wXAFjcQVh/fdIOHyuTUHWxtT3+zAroANUmpAPACmIL/D9+8G+T9VVQRTGUf++PvwhvftL3fgBqQEgHgBXFO+u9P/16UlWHKom/PIoB3fR2gPoQ0gEgI7GqHgOR9nfKFn8G4y+N4i+PTG8HqBchHQAyFCuW//zxG4I6pYm7z7/34S8mvzQCoH6EdADIWAzqvT/9u2OlcHE4XAzohsMB1JeQDgA5iNPfr+xvOloKEUP5Dz9+w3A4gAYQ0gEgJ9c+vTXZSw15ms5CiL8YAqD+hHQAyJHKJnmJcw96/32wVcBwOIDmENIBIEexuhkHeUGWYodGvHt+8zP7+QGaRkgHgJyZsk2W4qyDH378uuFwAA0lpANAzlQ7ycJktdoffzGZdQBAcz3h3QJAvmLFM/559slnnDRLuXb31mS9mrvnAM2nkg4ABTB5m2VMV6tdGW4K6AAtIaQDQAEMj2NRNz+/Y7UaQAtpdweAAuze33fMnEpcrfbTvetmGQC0lJAOAAX4UCWdU4ir1S7tvWNyO0CLCekAUAD3iTlOrJ7HwXAmtwMgpANAQUx45zBxXkFsb9+9r9sCACEdAAojpDMvVs/f/KTvXAD4ipAOAFAw1XMAjiKkAwAU6NrdW5O95wBwGCEdAKAA8brDpb3r9p4DcCwhHQAgZ7F6Hu+fm/IPwEmEdACAnKieA7AoIR0AIAfv3tsOV/ZvqJ4DsBAhHQAgQ6O/3Z9Mbr/52R3HCsDChHQAgIzc/PzOJKCrngOwLCEdAGBFqucAZEVIBwBYgeo5AFkS0gGgIM8++YyjbhDVcwDyIKQDQEGE9OZQPQcgL0I6AMApqZ4DkDchHQAKoIpef6rnABRBSAeAAjz75Dcdc02pngNQJCEdAOAI797bDlf2b6ieA1AYIR0ACvCDp553zDWy/9d74dLe9fD+Fx+1/SgAKJiQDgAw49rdW+FXn/RVzwEohZAOAAX4zpmzjrniVM8BqAIhHQAKsPb4GcdcYarnAFSFkA4ABfi+O+mVtPvlcDK5fff+sO1HAUBFCOkAkDM70qspVs7f/KTf9mMAoGKEdADImR3p1fL+Fx+HK/ubqucAVJKQDgA5s36tGkZ/uz+pnl/79FbbjwKAChPSASBn2t3LF6vnl/bemUxwB4AqE9IBIGfa3csTq+dxMNzNz+609QgAqBkhHQByZrJ7Od69tx2u7N+wVg2AWhHSASBHWt2LF1vaL+1dD+9/8VHbPjoADSCkA0COtLoXazIY7u4t1XMAaktIB4AcmexejN0vh5O759aqAVB3QjoA5Ei7e76sVQOgaYR0AMiRdvf83Pz8Trgy3LRWDYBGEdIBIEcmu2cvhvIr+5vWqgHQSEI6AOREq3v24lC42N5uMBwADTUU0gEgJ1rds2MwHAAtsS+kA0BOTHZfncFwALRNDOkjbx0AsqfdfTVxMFysnmttB6BNYkjf8cYBIHva3ZcTB8Nd2rse3v/iozo+PgCsRLs7AOTEZPfFxNb233x6K7z5Sb9Ojw0AmRLSASAHWt0X8/4XH4dLe+/YeQ5A242EdADIgVb307HzHAAesmNwHADkwGT3k02mtt+9ZTAcAMx4Ytzt73QGPWcCABnS7n40re0AcDTt7gCQA+3uj9LaDgAncicdAPJgsvvDtLYDwMlip/s0pMdd6evODABWp9X9Aa3tALCYaUg3PA4AMqLV/aC1/dLe9fD+Fx9V4GkAoD60uwNAxto82X30t/vhN5/eCm9+0q/A0wBArWyHmZAe2903vD8AWN13zpxt5Sm+e297Es61tgPA8qYh/S/OEACy0bY76fHeeQznWtsBYCWTa+jupANAxs59vR2V9NjafmV4Y1JBBwBWthvm2t0BgBWda0mru5VqAJAPg+MAIEPfePxMo4/TvXMAyM2keK6SDgAZOnfm2UYep3vnAJC7B3fSx93+qDPoOXIAWNFawyrpsWIew7l75wCQu2GYa3eP1fR15w4A2HcOAMUad/uPhHQT3gFgRd9/6p9qf4RxIFwcDGcoHAAUZjj9RvOV9A3vAADayVA4ACjNoSH9L94HALRPHAp3ZX8z7N4fevsAUI4jK+kAwAr2//o/IYTna3GEJrYDQGXsTx/EnXQAyFAdWsXjM8bK+c3P7lTgaQCA2aL5VyF93O1vW8MGAKuJU9Gryjo1AKisQ9vdQ/qLs94bACwntpBXjXAOANU27vYfraQnQjoArCAOX4vV9LXHz5R+jMI5ANTCQ5Nb50P6bWvYAGA1f/jsTvjJM+X936mBcABQK8eGdLtXAGBFMSCXEdJjxfw/790WzgGgXm7PPq2QDgAZi23m1+7eCj/71ku5H238XgfhfLsWk+UBgEc8lMMfm//bzqD3f84MAFaz9sSZ8F/PvxbOfT2fUS8xmN/8/I41agBQfy/GbWvTT3FYSP+z4XEAsLoY1P/jH/41/PjpFzL5etNQ/ofP74TR/1Z31RsAcHrjbv+hXD7f7h7SEnUhHQBWFIN070+/ntxP/+W3e+HZJ59Z6AvufjmcDIGLd8xVzAGgkXbmP9RhIX03hHDe+weAbMTW9Pjn3Jmz4ftPPT9pgX/2yW8+8rVjGI/r23bv74cPvxyqlgNA850qpMde+Nf8MABAtuIO9fgHACDZnT+Irx1yMo8keQAAACBzj+TvRwbHBcPjAAAAIHfzQ+PCEZX0oJoOAAAAuTo0dx8V0h/piwcAAAAys1BI3z7ivwcAAABWd/uwr3BoSB93+0I6AAAA5GehSnpwLx0AAAByMRp3+wuHdNV0AAAAyN6RRfHjQvqh/fEAAADASo7M2yrpAAAAUKwj8/Yji9NndQa9D0II614WAAAAZGPc7R+ZxY+rpAfVdAAAAMjUsTn7pJDuXjoAAABk59icrZIOAAAAxdk67jsdG9LH3f7IvnQAAADIxJH70adOqqQH1XQAAADIxIn5+jQh/ffeBQAAAKzsxHx9Ykgfd/sx6Y+8CwAAAFhJJpX0oOUdAAAAVrIz7vaHJ32B04Z0Le8AAACwvFMVv1XSAQAAIH+nKn4/dtrH6Ax6H4QQ1r04AAAAWEhcvfb0af6F01bSoxveAQAAACxs67T/wiIhXcs7AAAALO7Uc95O3e4eDlre/xxCOOuFAAAAwOmMu/1TZ+9FKulhkRI9AAAAsFiOXjSku5cOAAAAp7fQSvOFQvq4298JIZy4fB0AAACYyLWSvvA3AAAAgJbaGnf7o0U++jIhXcs7AAAAnGyhVvew6HT3KVPeAQAA4Fijcbf/9KJHtEwlPXrbuwAAAIAjLXVVfNmQ7l46AAAAHG3hVvewbLt7OGh5fy+EsOGFAAAAwEOG427/uWWOZNlKejBADgAAAA61dPf5KiE9ftOFRskDAABACyw9x23pkJ52vbmbDgAAAA/sjLv94bLnsUolPWh5BwAAgIestA1tpZA+7va344V47wMAAADCyh3nq1bSg53pAAAAMLGVroYvLYuQvuldAAAAwOpF7JVDevotgaAOAABAm8WBcTurfv4sKunBADkAAABaLpOr4I9ldYadQe+DEMJ6Vl8PAAAAamI07vafzuJRs6qkBwPkAAAAaKnM8nBmIX3c7W+mcfMAAADQJpnNacuykh5U0wEAAGiZzXG3P8zqI2cd0k15BwAAoE0yHaSeaUhPvz0Q1AEAAGiD7XG3v53l58y6kh69kcPXBAAAgKrJ/Mp3ZivYZnUGvfdCCBt5fG0AAACogOG4238u68fIo5IeVNMBAABouFxyby6V9KCaDgAAQHPlUkUPOVbSg2o6AAAADZVb3s0tpKcJd5lOuQMAAICSjUIIW3k9Qp6V9KCaDgAAQMO8Pe72R3l9pFxDumo6AAAADRLD+dU8P07elfSgmg4AAEBD5FpFD0WEdNV0AAAAGiD3KnooqJIeVNMBAACouct5V9FDnnvS59mbDgAAQE3lthd9XlGV9KCaDgAAQE0VlmcLq6SHg2r670II54v8ngAAALCCwqrooeBKenS54O8HAAAAq7hY5OkVGtLH3f4whLBZ5PcEAACAJW2njWWFKbqSHlI1PfeJeAAAALCiwrvBCw/paWT920V/XwAAAFjA5rjb3yn6wMqopIe0AH5Y0vcGAACA44zK2lBWSkhP1XRD5AAAAKiit9NMtcIVuoJtXmfQey+EsOFHEgAAgIoodOXavLLa3adU0wEAAKiSUnNqqSE9XcK/WuYzAAAAQBJXrm2VeRhlV9JDuoxvJRsAAABlu1j2A5Qe0tMQudIPAgAAgFZ7o6xhcbNKHRw3yxA5AAAASlLqsLhZVWh3n1JNBwAAoAyVyaOVCempraCUZfEAAAC01ua429+uyoevUiU9BvXXQwg7FXgUAAAAmm9UtdXglQrpibZ3AAAAinAxDTOvjMqF9LQ7Xds7AAAAedoqeyf6YapYSY+uxul6FXgOAAAAmqeyq8ArGdJTu8GFCjwKAAAAzVO5NvepqlbStb0DAACQh0q2uU9VNqQH094BAADIVmXb3KcqHdIT094BAADIQmXb3KcqH9JT23ul9tYBAABQO1er3OY+VYdKegzqcdr7dgUeBQAAgPqpzcyzWoT05EK6PwAAAACLqHyb+1RtQno6UPfTAQAAWMTldI26FupUSQ/p/sDVCjwKAAAA1beVrk/XRq1CejgI6petZQMAAOAEwzp2Y9cupCfupwMAAHCcC3W5hz6rliF93O3X8jciAAAAFKJW99Bn1bWS7n46AAAAh6ndPfRZtQ3p4cH9dPvTAQAACGl+Wa27rmsd0pMLaSAAAAAA7TWq0z70o9Q+pKcXYJAcAABAu12s6z30WU2opIf0Ii5X4FEAAAAo3htpblntPdakH57OoPdWCOHVCjwKAAAAxYiD4i405awbUUmfMkgOAACgVWo/KG5eo0J6ciG9KAAAAJprMp+s7oPi5jWq3X2qM+idDSF8EEJYq8YTAQAAkLHvNmFQ3LwmVtJj23tcyfZiBR4FAACA7DVikvthGhnSw4OJ7426mwAAAEC4PO72N5t6DI0N6eEgqG9azQYAANAYm+Nu/2qTX2cj76TP6wx6vw0hvFKtpwIAAGABjVq1dpRGV9Knxt1+bHtvbDsEAABAw7XmOnMrKulTnUEvTnxfr8bTAAAAcAoxoL/YtFVrR2lFJX3Gi3aoAwAA1MaoTQE9tC2kpxcrqAMAAFRf6wJ6aFu7+1Rn0FsLIcTW97PVeCIAAABmTAN66wqsbWt3n0i/ibmQXjwAAADV0dqAHtpaSZ/qDHpxiNx7IYS1ajwRAABAq7U6oIe2h/QgqAMAAFRJDOjbbX4jrWx3n5V+Q/Oi1ncAAIBSXWx7QA8q6Q+oqAMAAJQmBvRNxy+kP0RQBwAAKNQoBfQtx35ASJ8jqAMAABSi9UPiDiOkH0JQBwAAyJWAfoTWD447zMwwOT8wAAAA2RLQj6GSfozOoLeWKurrlX1IAACA+hDQT6CSfoxxtz9SUQcAAMjEjoB+MpX0U0gV9d+GEM5X/mEBAACqZxrQR97N8YT0BXQGvRjUX6nNAwMAAJRPQF+AkL6gzqD3Vgjh1Vo9NAAAQDk2x93+RWd/ekL6EjqD3iup/R0AAIDDXR13+5edzWKE9CV1Br3zKajbpQ4AAPCwi+Nuf9OZLE5IX0Fn0FtPK9oEdQAAgIMVaxfG3f62s1iOkL4iu9QBAAAmhimgW7G2AnvSVzSzS10rBwAA0FYxmH9XQF+dSnqGOoPe6yGE1xrzgQAAAE5mgnuGhPSMGSgHAAC0iAFxGRPSc5AGyv3WPXUAAKChJtd+tbdnz530HKQfVPfUAQCAJoqT258T0POhkp6zzqD3agjhrUZ/SAAAoC2ujrv9y952foT0AqT299+FEM42/sMCAABNNEr3z7e83XwJ6QVJ+9TjPfXzrfjAAABAU+yk/edDbzR/QnrBtL8DAAA1or29YEJ6CbS/AwAAFae9vSSmu5cgTUH8runvAABABU2ntwvoJVBJL1ln0Duf7qqvtfogAACAssXq+Rvjbv+qN1EeIb0CDJUDAABKtpPa2+0+L5mQXiFpqNxrquoAAECBYvX8dQdeDUJ6xXQGvbOpqr7R9rMAAABypXpeQUJ6RamqAwAAOVI9ryghvcLcVQcAADIWJ7dfVj2vLiG9BtIE+LfsVQcAAJZkcntNCOk1karqsf391bafBQAAsJCtdPd85NiqT0ivmc6gt56q6gbLAQAAxxmmcL7tlOpDSK+pzqD3SgrrBssBAACzYsX8bYPh6klIrzEt8AAAwJytNBhu6GDqSUhvALvVAQCg9XZSONfaXnNCeoN0Br2NFNZNgQcAgHYYpqntm953MwjpDeS+OgAANN7k3nkI4aqp7c0ipDdUuq8e76r/XFgHAIBGuZqq58J5AwnpDTcT1l9r+1kAAEDNbaZwbihcgwnpLZGGy8Wg/krbzwIAAGpGOG8RIb1lhHUAAKgN4byFhPSWEtYBAKCyhPMWE9JbzoA5AACoDOEcIZ0DwjoAAJRiukptUzgnCOkcJu1Zj63wZx0QAADkYjgTzq1S4ytCOkfqDHobqbJ+3ikBAEAmtkMIN8bd/qbj5DBCOidKQ+Z+nobMaYUHAIDFxVD+9rjb33F2HEdI59TSvfXzKbCvOzkAADiWlnYWJqSzlM6gtz7TCq+6DgAAD2ymlvZtZ8KihHRWMlNdfzmEsOE0AQBoqdjGfkPVnFUJ6WQm3V1/JQV2k+EBAGi62M6+larm7pqTCSGdXKR2+JdTlV1gBwCgKUYpmP9+3O1veatkTUgnd2mV28vurwMAUFOCOYUR0imUCjsAADUhmFMKIZ3SpMAew/q/WOkGAEAFuGNO6YR0KiENndtIgX1DWzwAAAWJofx2/Oe42x86dMompFNJM1X2H1jtBgBAhmKFfDu1sdtjTuUI6dRCGj63IbQDALCgaSiP1fJtO8ypOiGdWpoJ7ee0xwMAkIxSKL+dgvmOUE7dCOk0QrrTvp4q7euq7QAArbCdQvluCuSGvVF7QjqNNRPcp+H9rLVvAAC1NEx/bqd/CuQ0lpBO66RW+WlgP5da5VXeAQDKt5Na1m/PBHMt67SKkA5JZ9BbS1X36T+/MbO/XYgHAFjdNITH8L0/E8SH1p/BASEdFpBa6Kct8+szA+tmA3045O8BAJpmfn3ZNHiHmQFuk/+sNR1OKYTw/2z0Q8ooseh4AAAAAElFTkSuQmCC" parent="1" vertex="1">
                    <mxGeometry x="209.5" y="410" width="61" height="60.94" as="geometry"/>
                </mxCell>
                <mxCell id="ZURjfdf_9gOF2QyeWpGf-30" value="LINE Message API" style="text;strokeColor=none;align=center;fillColor=none;html=1;verticalAlign=middle;whiteSpace=wrap;rounded=0;" parent="1" vertex="1">
                    <mxGeometry x="185" y="470" width="110" height="30" as="geometry"/>
                </mxCell>
                <mxCell id="ZURjfdf_9gOF2QyeWpGf-18" style="edgeStyle=orthogonalEdgeStyle;rounded=0;orthogonalLoop=1;jettySize=auto;html=1;" parent="1" source="ZURjfdf_9gOF2QyeWpGf-11" edge="1" target="5">
                    <mxGeometry relative="1" as="geometry">
                        <mxPoint x="1100.0358823529411" y="660" as="sourcePoint"/>
                        <mxPoint x="510" y="490" as="targetPoint"/>
                        <Array as="points">
                            <mxPoint x="1100" y="690"/>
                            <mxPoint x="510" y="690"/>
                        </Array>
                    </mxGeometry>
                </mxCell>
                <mxCell id="ZURjfdf_9gOF2QyeWpGf-19" value="&lt;ul&gt;&lt;li&gt;獣害報告アラートを実行&lt;/li&gt;&lt;li&gt;通報期限切れメッセージの送信&lt;/li&gt;&lt;/ul&gt;" style="edgeLabel;html=1;align=left;verticalAlign=middle;resizable=0;points=[];labelBackgroundColor=none;" parent="ZURjfdf_9gOF2QyeWpGf-18" vertex="1" connectable="0">
                    <mxGeometry x="0.0553" y="-1" relative="1" as="geometry">
                        <mxPoint x="-224" y="-119" as="offset"/>
                    </mxGeometry>
                </mxCell>
                <mxCell id="ZURjfdf_9gOF2QyeWpGf-38" value="&lt;ul&gt;&lt;li&gt;獣害報告内容をスプレッドシートへ連携&lt;/li&gt;&lt;li style=&quot;text-align: left;&quot;&gt;GASで連携処理を実装&lt;/li&gt;&lt;/ul&gt;" style="edgeStyle=orthogonalEdgeStyle;rounded=0;orthogonalLoop=1;jettySize=auto;html=1;labelBackgroundColor=none;exitX=0;exitY=0.5;exitDx=0;exitDy=0;startArrow=classic;startFill=1;endArrow=none;endFill=0;" parent="1" source="y1teqzny498Lhfl6eGFe-9" edge="1" target="5">
                    <mxGeometry x="-0.4564" y="-20" relative="1" as="geometry">
                        <mxPoint x="492.91666418079103" y="410" as="targetPoint"/>
                        <Array as="points">
                            <mxPoint x="480" y="80"/>
                        </Array>
                        <mxPoint as="offset"/>
                        <mxPoint x="684.8020879096046" y="80" as="sourcePoint"/>
                    </mxGeometry>
                </mxCell>
                <mxCell id="7" value="Amazon RDS" style="sketch=0;outlineConnect=0;fontColor=#232F3E;gradientColor=none;strokeColor=#ffffff;fillColor=#232F3E;dashed=0;verticalLabelPosition=middle;verticalAlign=bottom;align=center;html=1;whiteSpace=wrap;fontSize=10;fontStyle=1;spacing=3;shape=mxgraph.aws4.productIcon;prIcon=mxgraph.aws4.rds;" vertex="1" parent="1">
                    <mxGeometry x="815.67" y="200" width="80" height="100" as="geometry"/>
                </mxCell>
                <mxCell id="ZURjfdf_9gOF2QyeWpGf-36" value="Line Bot &lt;br&gt;Server" style="text;strokeColor=none;align=center;fillColor=none;html=1;verticalAlign=middle;whiteSpace=wrap;rounded=0;" parent="1" vertex="1">
                    <mxGeometry x="420" y="510" width="100" height="30" as="geometry"/>
                </mxCell>
                <mxCell id="5" value="Amazon EC2" style="sketch=0;outlineConnect=0;fontColor=#232F3E;gradientColor=none;strokeColor=#ffffff;fillColor=#232F3E;dashed=0;verticalLabelPosition=middle;verticalAlign=bottom;align=center;html=1;whiteSpace=wrap;fontSize=10;fontStyle=1;spacing=3;shape=mxgraph.aws4.productIcon;prIcon=mxgraph.aws4.ec2;" vertex="1" parent="1">
                    <mxGeometry x="440" y="394.5" width="90" height="111" as="geometry"/>
                </mxCell>
            </root>
        </mxGraphModel>
    </diagram>
</mxfile>